<?xml version="1.0" encoding="UTF-8" standalone="no"?>
<!DOCTYPE svg  PUBLIC '-//W3C//DTD SVG 1.1//EN'  'http://www.w3.org/Graphics/SVG/1.1/DTD/svg11.dtd'>
<svg version="1.1" xmlns="http://www.w3.org/2000/svg">
<defs>
<font id="TriplicateT4c" horiz-adv-x="600">
<font-face panose-1="2 0 0 9 0 0 0 0 0 0" unicode-range="U+0020-00FE" x-height="454" underline-position="-125" cap-height="648" bbox="-15 -250 618.571 931" units-per-em="1000" ascent="741" font-weight="400" underline-thickness="50" descent="-259" font-family="Triplicate T4c"/>
<missing-glyph/>
<glyph glyph-name="space" unicode=" "/>
<glyph glyph-name="exclam" unicode="!" d="M248 591q-5 48 17 78.5t55 30.5q34 0 53 -30t14 -78q-11 -97 -21.5 -188.5t-14.5 -176.5q0 -9 -9 -14t-20 -5q-12 0 -21 4.5t-10 15.5q-7 85 -19.5 177t-23.5 186zM246 66q0 31 21.5 51t57.5 20q14 0 28 -4.5t25.5 -13.5t18.5 -22t7 -31q0 -29 -23 -51t-58 -22 q-36 0 -56.5 19t-20.5 54z"/>
<glyph glyph-name="quotedbl" unicode='&quot;' d="M142 650q-3 20 5 37t30 17h27q20 0 31 -13.5t9 -44.5l-10 -270q0 -8 -8.5 -12.5t-18 -4.5t-18 3.5t-9.5 11.5zM357 650q0 22 8.5 38t36.5 16h27q15 0 25 -15.5t5 -42.5l-38 -270q-1 -8 -9.5 -12.5t-18.5 -4.5t-18 3.5t-8 11.5z"/>
<glyph glyph-name="numbersign" unicode="#" d="M299 734q2 9 11 13t18.5 3.5t16.5 -5.5t5 -14q-49 -196 -88.5 -381t-76.5 -377q-2 -9 -11 -13t-19 -3t-17.5 6t-5.5 13l59 268h-78q-8 0 -12.5 10.5t-4.5 22.5t4 22.5t13 10.5h92l29 129h-84q-8 0 -12.5 10.5t-4.5 22.5t4 22.5t13 10.5h98zM447 734q2 9 11 13t18.5 3.5 t16.5 -5.5t5 -14l-49 -226h80q7 0 11 -10.5t4 -22.5t-4 -22.5t-11 -10.5h-95l-28 -129h86q7 0 11 -10.5t4 -22.5t-4 -22.5t-11 -10.5h-100l-59 -271q-2 -9 -11.5 -13t-19.5 -3t-17 6t-5 13q24 95 46.5 188.5t43 187.5t40 189t37.5 193z"/>
<glyph glyph-name="dollar" unicode="$" d="M278 29q-49 2 -84.5 12t-73.5 25q-16 6 -20.5 12t-4.5 24q0 19 -0.5 25t-0.5 10v12v31q0 12 7.5 18.5t17 8t18.5 -3t12 -15.5q7 -23 17 -42.5t25 -34t36 -23.5t51 -11v226q-50 11 -82.5 29.5t-51.5 41t-26.5 48t-7.5 50.5q0 28 12 57t33.5 53t52.5 40.5t70 21.5v81 q0 13 7 19t15.5 6t15.5 -6t7 -17v-82q48 -2 80.5 -15t50.5 -23q11 -7 13 -14t3 -29l2 -69q0 -11 -9.5 -17t-21 -6t-21.5 6t-11 20l-3 62q-29 32 -83 36v-223q50 -11 82.5 -29t52 -39.5t27.5 -47t8 -51.5q0 -33 -13 -63t-36 -53t-54 -39t-67 -20v-121q0 -4 -7 -8t-15.5 -5.5 t-15.5 0.5t-7 10v122zM423 189q0 34 -20.5 59.5t-79.5 43.5v-213q24 4 42.5 15t31.5 26t19.5 33t6.5 36zM176 484q0 -39 26 -62.5t76 -37.5v211q-23 -4 -41.5 -14.5t-32 -25.5t-21 -33.5t-7.5 -37.5z"/>
<glyph glyph-name="percent" unicode="%" d="M77 13q103 164 201.5 327t195.5 332q9 15 22.5 18.5t24.5 -1.5t16 -16.5t-4 -25.5q-103 -169 -198.5 -333.5t-187.5 -329.5q-12 -21 -28 -25.5t-29 2t-18 21t5 31.5zM78 579q0 25 9.5 47.5t26 39t39 26t47.5 9.5q26 0 41.5 -3.5t29.5 -9.5l75 6q13 1 19.5 -7t8 -18 t-2.5 -18.5t-12 -9.5l-48 -5q9 -14 12 -27t3 -30q0 -25 -10.5 -47t-27.5 -38t-40 -25.5t-48 -9.5t-47.5 9.5t-39 25.5t-26 38t-9.5 47zM301 77q0 25 9.5 47.5t26 39t39 26t47.5 9.5t47.5 -9.5t39 -26t26 -39t9.5 -47.5t-9.5 -47.5t-26 -39t-39 -26t-47.5 -9.5t-47.5 9.5 t-39 26t-26 39t-9.5 47.5zM132 581q0 -29 20.5 -51t49.5 -22t50.5 22t21.5 51q0 35 -21 54t-50 19q-32 0 -51.5 -22t-19.5 -51zM354 76q0 -29 19 -50.5t50 -21.5q30 0 48.5 21.5t18.5 50.5q0 32 -19 52.5t-48 20.5t-49 -21.5t-20 -51.5z"/>
<glyph glyph-name="ampersand" unicode="&amp;" d="M456 2q-6 -2 -12 -2t-11 6l-26 50q-26 -32 -60.5 -49.5t-85.5 -17.5q-37 0 -70 14.5t-58.5 39t-40.5 57.5t-15 71q0 63 35 115.5t103 86.5v14q-9 10 -20 24t-20.5 30.5t-16 34t-6.5 32.5q0 28 11 52.5t30 43t45 29t56 10.5q26 0 44.5 -6.5t31.5 -16.5t21 -22.5t14 -24.5 q3 -8 -5 -16t-19.5 -13t-23.5 -6t-16 6q-9 14 -24 30t-37 16q-13 0 -23.5 -5.5t-17.5 -14t-11 -19t-4 -20.5q0 -17 6.5 -34.5t17 -35.5t23.5 -35t26 -31q24 -26 43 -56.5t34 -60.5t25.5 -57t16.5 -46h15q10 28 11.5 53t1.5 56q0 13 11 16l55 14q14 4 23 -4.5t9 -24.5 q0 -8 -5.5 -18.5t-20.5 -15.5l-22 -6q-2 -48 -15 -84.5t-28 -59.5l17 -27q4 -5 10 0l20 19q5 4 17.5 -3t20.5 -19.5t5.5 -27t-27.5 -23.5zM253 340q-27 -9 -45 -24t-28.5 -33.5t-14.5 -38.5t-4 -38q0 -33 9 -62t25 -50.5t38.5 -34t49.5 -12.5t56 10.5t47 41.5 q-6 27 -20.5 59t-33.5 65t-39.5 63.5t-39.5 53.5z"/>
<glyph glyph-name="quotesingle" unicode="&apos;" d="M246 667q-3 37 47 37h15q24 0 37.5 -9t11.5 -23l-26 -294q0 -8 -9.5 -12.5t-20.5 -4.5t-20 3.5t-10 11.5z"/>
<glyph glyph-name="parenleft" unicode="(" d="M471 -102q14 -11 13.5 -25t-9 -24.5t-22 -14.5t-25.5 5q-36 26 -77 71t-75.5 103t-57.5 125t-23 138q0 80 23 152t59 132t79 106t83 74q12 9 24.5 5t20 -14t7 -22t-13.5 -21q-41 -27 -76.5 -70t-61.5 -95.5t-41 -111t-15 -116.5q0 -120 49.5 -222.5t138.5 -174.5z"/>
<glyph glyph-name="parenright" unicode=")" d="M118 680q-14 11 -13.5 24.5t9 24t22 15t25.5 -4.5q36 -26 78 -70t77.5 -102.5t59 -130t23.5 -153.5q0 -73 -23 -141t-59 -126.5t-79 -104t-83 -73.5q-12 -9 -25.5 -5t-22.5 13.5t-9.5 22t12.5 21.5q43 29 79.5 72t63 95t41 110t14.5 116q0 119 -45.5 220.5t-144.5 176.5z "/>
<glyph glyph-name="asterisk" unicode="*" d="M319 427l144 74q5 2 11 4t12 0.5t12 -7.5t11 -18l8 -18q7 -20 -4.5 -33t-27.5 -14l-154 -30l137 -125q5 -4 9.5 -10t5.5 -13.5t-3 -16.5t-16 -19l-13 -9q-20 -14 -33.5 -9.5t-20.5 18.5l-99 162l-97 -169q-6 -12 -21 -17t-32 10l-17 14q-16 14 -13.5 30t15.5 27l128 125 l-149 35q-7 0 -13.5 3t-11 8.5t-6 13.5t2.5 19l7 23q7 20 19.5 22t27.5 -6l136 -74l-20 188q-2 14 7 24.5t31 10.5h17q16 0 26.5 -9t7.5 -27z"/>
<glyph glyph-name="plus" unicode="+" d="M262 306v206q0 12 11.5 17.5t25.5 5t26 -6.5t12 -17v-205h196q12 0 18.5 -11t6.5 -24.5t-5.5 -24.5t-17.5 -11h-198v-202q0 -13 -11.5 -20t-25.5 -7.5t-26 5.5t-12 19v205h-195q-13 0 -19 11t-6.5 24.5t5.5 24.5t17 11h198z"/>
<glyph glyph-name="comma" unicode="," d="M229 61q0 27 23 48.5t59 21.5q54 0 87 -40.5t33 -108.5q0 -47 -18 -81t-47 -56.5t-65 -34.5t-71 -14q-6 0 -10.5 10t-5.5 22t2 23t11 12q49 7 82.5 28.5t33.5 53.5q0 16 -8.5 25.5t-21 15.5t-27.5 11t-27.5 12.5t-21 19.5t-8.5 32z"/>
<glyph glyph-name="hyphen" unicode="-" d="M520 306q12 0 17 -11t4.5 -24.5t-7.5 -24.5t-19 -11h-430q-13 0 -19.5 11t-7 24.5t5 24.5t16.5 11h440z"/>
<glyph glyph-name="period" unicode="." d="M209 67q0 38 25.5 63t67.5 25q40 0 65 -25t25 -63q0 -42 -26.5 -64t-64.5 -22q-42 0 -67 22t-25 64z"/>
<glyph glyph-name="slash" unicode="/" d="M57 -81q106 194 210.5 393t204.5 394q9 18 24.5 24t28.5 1.5t19.5 -16.5t-1.5 -30q-103 -191 -208 -389t-205 -394q-10 -20 -26.5 -26t-30 -1.5t-20 17t3.5 27.5z"/>
<glyph glyph-name="zero" unicode="0" d="M529 332q0 -83 -18 -148t-50.5 -110t-77.5 -68.5t-98 -23.5q-47 0 -86 23.5t-67.5 64.5t-44.5 95.5t-16 117.5q0 81 13.5 150.5t42 120.5t73 80t105.5 29q45 0 86 -20.5t71.5 -62t48.5 -103.5t18 -145zM439 326q0 79 -11 135t-31 91q-90 -246 -171 -489q30 -31 68 -31 q28 0 54 15t46 49.5t32.5 91t12.5 138.5zM194 113q44 120 85 240.5t80 241.5q-26 18 -59 18q-38 0 -64.5 -21t-43.5 -59.5t-25 -93.5t-8 -123q0 -67 9 -117.5t26 -85.5z"/>
<glyph glyph-name="one" unicode="1" d="M270 60v401h-81q-11 -1 -16 5t-5 14.5t4 16t11 10.5q19 7 35.5 17t29.5 25.5t23 40t17 61.5q1 6 12 8t23.5 0t22 -7.5t8.5 -15.5q-2 -14 -3 -44t-1 -71v-461l125 -10q9 0 12.5 -8t3.5 -17t-4.5 -17t-11.5 -8h-322q-7 0 -10 8t-3 17t3.5 17t9.5 8z"/>
<glyph glyph-name="two" unicode="2" d="M410 492q0 57 -31.5 88.5t-76.5 31.5q-26 0 -50 -9t-35 -33v-51q0 -28 -17.5 -39.5t-34.5 -11.5q-42 0 -42 39q0 29 14.5 57t41 50t62.5 35.5t78 13.5q32 0 64 -11t58 -32.5t42 -54t16 -75.5q0 -33 -19.5 -73t-50 -81.5t-67 -82.5t-71 -75t-62.5 -58.5t-41 -34.5l6 -14 h215q29 0 41.5 9.5t20.5 20.5q3 4 14.5 4t23 -3t19.5 -8.5t5 -12.5l-26 -63q-6 -13 -12 -15.5t-18 -2.5h-358q-6 0 -11 9.5t-8 21.5t-3 23t4 14q55 48 110 102t99.5 110t72 110t27.5 102z"/>
<glyph glyph-name="three" unicode="3" d="M391 349q52 -16 84.5 -61t32.5 -105q0 -43 -16.5 -79.5t-47 -63.5t-75 -42.5t-100.5 -15.5q-38 0 -87 11.5t-94 43.5q-8 6 -7.5 16.5t6 20t14 15t16.5 0.5q33 -21 66.5 -33t83.5 -12q69 0 111.5 35t42.5 102q0 66 -36.5 101t-91.5 35h-43q-8 0 -11 8.5t-3 19t3.5 19.5 t10.5 9h46q15 0 31 6t29.5 20t22.5 36.5t9 55.5q0 67 -26 96.5t-65 29.5q-36 0 -55 -16t-21 -42q-2 -30 -16 -43t-36 -13q-23 0 -32 10t-9 27t11.5 38t34 39.5t55 31t75.5 12.5q33 0 64 -10t55 -30t39 -51.5t15 -74.5q0 -45 -26 -81.5t-60 -52.5v-12z"/>
<glyph glyph-name="four" unicode="4" d="M451 209h61q13 0 19 -9t5.5 -19.5t-6 -19.5t-14.5 -9h-65v-155q0 -8 -11 -12.5t-23.5 -4.5t-23.5 4t-11 13v154h-266q-11 0 -16 13.5t-6.5 30.5t0 32.5t3.5 20.5q61 97 111 196t76 204q3 13 17.5 17.5t30.5 3t28 -8t10 -16.5q-14 -50 -38 -102.5t-54 -105t-63 -102.5 t-64 -94v-31h231v184q0 8 11 12t23.5 3.5t23.5 -5t11 -12.5v-182z"/>
<glyph glyph-name="five" unicode="5" d="M154 618q1 17 9.5 23.5t22.5 6.5h198q19 0 34 2t29 5q12 2 17.5 -10t2 -27t-17.5 -28t-42 -13h-201l-10 -158l13 -9q12 7 32 11.5t53 4.5q38 0 75.5 -12.5t67.5 -38.5t48.5 -65t18.5 -91q0 -50 -20.5 -93t-58 -75t-92 -50.5t-121.5 -18.5q-18 0 -36.5 2t-35.5 5.5 t-31.5 8.5t-23.5 11q-8 6 -7.5 17t5.5 20.5t13.5 15.5t16.5 1q14 -10 41 -16.5t69 -6.5q40 0 75.5 12.5t62 35.5t42 55.5t15.5 73.5q0 66 -40.5 108t-124.5 42q-28 0 -48 -6t-34 -14q-9 -6 -21 3.5t-11 20.5z"/>
<glyph glyph-name="six" unicode="6" d="M196 358q28 26 61.5 43t79.5 17q35 0 68 -12.5t58.5 -38.5t40.5 -66t15 -95q0 -53 -18.5 -95t-48.5 -70.5t-67.5 -43.5t-74.5 -15q-48 0 -88 19t-69.5 57.5t-45.5 97t-16 136.5q0 77 24.5 142.5t67.5 115t102.5 80t130.5 38.5q6 1 9 -6.5t3 -17t-3 -18t-10 -9.5 q-100 -17 -160 -81t-75 -170zM190 299q-3 -8 -4.5 -20t-2.5 -25.5t-1.5 -25.5t-0.5 -19q0 -38 10 -70t28 -55.5t42 -36.5t53 -13q51 0 86.5 45t35.5 131q0 40 -10.5 68t-27.5 46t-39 26.5t-45 8.5q-40 1 -73.5 -17.5t-50.5 -42.5z"/>
<glyph glyph-name="seven" unicode="7" d="M492 583q-67 -133 -124.5 -283t-99.5 -299q-4 -9 -21 -14t-37 -5t-35 4.5t-9 18.5q52 137 118 281t141 276l-7 14q-29 0 -65 -0.5t-73 -1t-71 -2t-59 -2.5q-18 -1 -27 11.5t-9.5 28t6 28.5t20.5 13q7 0 24 -0.5t36.5 -1t39.5 -1t33 -0.5h176q12 0 22 -7t16 -16.5t7.5 -21 t-2.5 -20.5z"/>
<glyph glyph-name="eight" unicode="8" d="M87 157q0 31 11 58t29 49t40 37.5t44 23.5v16q-49 31 -72 70.5t-23 84.5q0 32 13.5 62t39 53.5t61.5 37.5t82 14q35 0 68.5 -10t60 -29.5t42.5 -49t16 -69.5q0 -27 -9 -51t-23.5 -44t-32 -35t-33.5 -23v-12q53 -22 89 -66t36 -109q0 -41 -16 -74.5t-45.5 -57.5t-71 -37.5 t-92.5 -13.5q-46 0 -85.5 13t-68 36.5t-44.5 55.5t-16 70zM169 174q0 -26 8 -50t24.5 -43.5t42.5 -31t62 -11.5q33 0 59 9.5t44 26t27.5 38.5t9.5 46q0 59 -46.5 99t-126.5 54q-104 -43 -104 -137zM185 499q0 -23 10.5 -43t29.5 -37t44.5 -30t54.5 -22q10 4 26.5 14.5 t32.5 27t27.5 40t11.5 53.5q0 55 -32 83.5t-81 28.5q-30 0 -53.5 -10.5t-39 -27t-23.5 -37t-8 -40.5z"/>
<glyph glyph-name="nine" unicode="9" d="M403 276q-28 -26 -60.5 -39.5t-78.5 -13.5q-35 0 -67.5 15t-57 43t-39 68.5t-14.5 92.5t18 93t47.5 69.5t66 43.5t73.5 15q48 0 87.5 -18.5t68 -56t44.5 -94.5t16 -133q0 -55 -13.5 -108.5t-39 -99.5t-62 -82.5t-83.5 -57.5q-15 -8 -36.5 -15t-46.5 -12.5t-50 -9 t-47 -4.5q-6 0 -9 8t-3 17.5t3 18.5t10 10q39 6 82.5 16t70.5 24q51 23 84 74.5t50 127.5zM413 344q2 10 3 22.5t1.5 25.5t0.5 24v18q0 38 -10 70.5t-27 56t-41.5 37t-52.5 13.5q-26 0 -48 -11.5t-38.5 -33t-26 -53t-9.5 -71.5q0 -42 10.5 -71.5t27.5 -49t38 -28.5t42 -9 q43 0 77.5 18.5t52.5 41.5z"/>
<glyph glyph-name="colon" unicode=":" d="M230 70q0 33 23 55.5t60 22.5q35 0 57.5 -22t22.5 -56q0 -37 -23.5 -57t-57.5 -20q-37 0 -59.5 20t-22.5 57zM230 328q0 33 23 55.5t60 22.5q35 0 57.5 -22t22.5 -56q0 -37 -23.5 -57t-57.5 -20q-37 0 -59.5 20t-22.5 57z"/>
<glyph glyph-name="semicolon" unicode=";" d="M233 328q0 33 23 55.5t60 22.5q35 0 57.5 -22t22.5 -56q0 -37 -23.5 -57t-57.5 -20q-37 0 -59.5 20t-22.5 57zM231 61q0 27 23 48.5t59 21.5q54 0 85.5 -40.5t31.5 -108.5q0 -47 -17.5 -81t-46 -56.5t-64 -34.5t-70.5 -14q-6 0 -10.5 10t-5.5 22t2 23t11 12 q49 7 82.5 28.5t33.5 53.5q0 16 -8.5 25.5t-21 15.5t-27.5 11t-27.5 12.5t-21 19.5t-8.5 32z"/>
<glyph glyph-name="less" unicode="&lt;" d="M449 506q11 6 22 -1.5t17.5 -20t7.5 -25.5t-8 -17l-315 -157v-15l318 -161q9 -6 9 -20t-6 -27.5t-16.5 -21.5t-21.5 -2l-377 202q-9 4 -13.5 13.5t-5.5 19.5t3.5 19.5t13.5 14.5z"/>
<glyph glyph-name="equal" unicode="=" d="M514 394q18 0 26 -10.5t8 -24.5t-7.5 -25t-21.5 -11h-441q-15 0 -22 10t-7 23q0 14 9 26t27 12h429zM514 231q20 0 28.5 -10.5t8.5 -23.5q0 -14 -9 -25.5t-23 -11.5h-443q-13 0 -19 10t-6 23q0 14 7.5 26t24.5 12h431z"/>
<glyph glyph-name="greater" unicode="&gt;" d="M523 307q9 -5 13.5 -14.5t3.5 -19.5t-5.5 -19.5t-13.5 -13.5l-377 -202q-11 -6 -21.5 2t-16.5 21.5t-6 27.5t9 20l318 161v15l-315 157q-9 4 -8.5 17t7.5 25.5t18 20t22 1.5z"/>
<glyph glyph-name="question" unicode="?" d="M251 269q0 26 9.5 53.5t27.5 50.5q13 16 28.5 36.5t29.5 44.5t23.5 49.5t9.5 50.5q0 46 -25 73t-66 27t-62 -22.5t-24 -46.5q-2 -17 3.5 -29.5t5.5 -26.5q0 -17 -9.5 -29t-32.5 -12q-22 0 -32 12.5t-10 32.5q0 35 13 65.5t36 53t54.5 35.5t69.5 13q36 0 67 -11.5 t53.5 -32t35.5 -48.5t13 -61q0 -24 -10 -48t-25 -45.5t-33.5 -40.5t-34.5 -34q-26 -24 -40.5 -53.5t-14.5 -55.5v-41q0 -10 -9 -15.5t-20 -5.5t-21 4.5t-10 15.5v41zM212 66q0 31 21.5 51t57.5 20q14 0 28 -4.5t25.5 -13.5t18.5 -22t7 -31q0 -29 -23 -51t-58 -22 q-36 0 -56.5 19t-20.5 54z"/>
<glyph glyph-name="at" unicode="@" d="M490 209l37 -27q4 -3 0.5 -10.5t-9.5 -15t-13.5 -12t-11.5 -2.5l-43 29h-10q-8 -7 -27.5 -17.5t-48.5 -10.5q-23 0 -45.5 7.5t-41.5 25.5t-30.5 47.5t-11.5 72.5q0 41 12.5 77.5t33.5 63.5t48.5 42.5t57.5 15.5q23 0 36.5 -4t30.5 -16l14 6q4 37 -2 70.5t-21.5 59.5 t-41 41.5t-61.5 15.5q-52 0 -92.5 -28t-68 -77.5t-41.5 -117.5t-14 -147q0 -76 12 -138t38.5 -106.5t68 -69t100.5 -24.5q27 0 58 9t52 19q7 3 11 -3t5.5 -15.5t-0.5 -19t-6 -11.5q-35 -17 -65.5 -23t-55.5 -6q-77 0 -129.5 31.5t-84 85t-45 124t-13.5 148.5q0 85 17.5 161 t52 132t85.5 89t117 33q55 0 90.5 -23t54 -66t22.5 -103t-3 -134zM369 189q17 0 36.5 9t28.5 26l20 166q3 21 -13.5 40.5t-51.5 19.5q-26 0 -44.5 -15t-30.5 -37t-17.5 -48t-5.5 -48q0 -32 6.5 -53.5t17.5 -35t25 -19t29 -5.5z"/>
<glyph glyph-name="A" unicode="A" d="M407 199h-237l-34 -99q-15 -49 47 -51l57 -2q8 0 12 -7.5t4 -16.5t-5.5 -16t-15.5 -7h-208q-10 0 -15 6.5t-5 14.5t4 16t12 10l10 3q7 2 14 6.5t14 14.5t15 27.5t18 46.5l182 500q3 8 10 13t14 5q8 0 14.5 -4t11.5 -16l224 -594h48q8 0 12 -7.5t4 -17t-4 -17t-11 -7.5 h-225q-8 0 -11.5 7.5t-3.5 17t4.5 17t12.5 7.5h85zM186 246h204l-94 265q-3 8 -9.5 9t-10.5 -10z"/>
<glyph glyph-name="B" unicode="B" d="M537 177q0 -40 -15 -73t-42.5 -56.5t-66 -36t-86.5 -11.5l-150 3l-113 -3q-9 0 -13.5 7.5t-4.5 16.5t4.5 17t13.5 8h67v550h-83q-8 0 -12 8t-4.5 17t3.5 16.5t13 7.5l142 -3l121 3q24 1 55.5 -5t59 -22t46.5 -42.5t19 -67.5q0 -20 -5.5 -42.5t-18.5 -43t-35 -37.5 t-55 -26v-12q71 -13 115.5 -58.5t44.5 -114.5zM450 185q0 28 -11.5 53.5t-33 44.5t-53.5 30.5t-73 11.5h-70v-276h97q34 0 60.5 10.5t45 29t28.5 43t10 53.5zM209 372h72q34 0 58.5 11t40.5 28t23 39t7 44q0 30 -8.5 50t-23.5 32t-34.5 17.5t-41.5 5.5h-93v-227z"/>
<glyph glyph-name="C" unicode="C" d="M53 292q0 92 22 161.5t60 116t89.5 70t110.5 23.5q22 0 39.5 -3.5t31 -7t24.5 -7t22 -3.5q19 0 32.5 5t24.5 5q14 0 18.5 -8.5t3.5 -22.5l-12 -165q0 -5 -7.5 -7.5t-16.5 -2t-16.5 3t-7.5 6.5q0 46 -10.5 76.5t-29 48.5t-45 25t-57.5 7q-43 0 -78 -21.5t-59.5 -60 t-38 -91t-13.5 -115.5q0 -62 11 -115t34 -92t59.5 -61t87.5 -22q27 0 52 9t44.5 24t31 35t11.5 42v40q0 9 5.5 16t26.5 7q22 0 28.5 -7t6.5 -14v-80q0 -18 -5.5 -28.5t-14.5 -19.5q-16 -15 -37.5 -29t-46 -24.5t-52.5 -17t-56 -6.5q-56 0 -106 20.5t-87 59.5t-58.5 97 t-21.5 133z"/>
<glyph glyph-name="D" unicode="D" d="M127 49v550h-86q-5 0 -8.5 7.5t-4 17t2.5 17t10 7.5h239q60 0 111 -20.5t88 -59.5q42 -45 64 -108.5t22 -139.5q0 -80 -24.5 -150t-78.5 -115q-32 -26 -75.5 -40.5t-98.5 -14.5h-242q-5 0 -8 7.5t-3 17t2.5 17t8.5 7.5h81zM205 49h79q40 0 75 13t61.5 45t41 86t14.5 136 q0 56 -13.5 105t-40 86t-65 58t-89.5 21h-63v-550z"/>
<glyph glyph-name="E" unicode="E" d="M216 324v-272l195 7q45 1 63.5 16.5t20.5 47.5l2 67q1 7 9 10.5t17.5 3.5t17 -4t7.5 -10l-2 -166q0 -26 -28 -24l-333 4l-122 -4q-7 0 -11 7.5t-4.5 16.5t3.5 17t12 8h75v550h-81q-6 0 -9 7.5t-3 17t3 17t9 7.5l130 -3l317 3q11 -1 18 -9t6 -22l-8 -140q0 -6 -7.5 -8.5 t-16 -2t-15.5 3t-7 7.5v62q0 28 -19 41t-64 15l-175 4v-234l129 5q5 0 8 1t3 7v75q0 5 8 7.5t17.5 2.5t17.5 -2.5t8 -7.5v-214q0 -6 -8.5 -9.5t-18 -4t-17.5 2.5t-8 11v72q0 3 -1 5.5t-9 2.5z"/>
<glyph glyph-name="F" unicode="F" d="M72 0q-7 0 -11 7.5t-4.5 17t3.5 17t12 7.5h85v550h-101q-6 0 -9 7.5t-3 17t3 17t9 7.5l140 -3l335 3q11 -1 18 -9t6 -22l-8 -141q0 -6 -7.5 -9t-16.5 -3t-16 3t-7 9v56q0 31 -23.5 45t-58.5 17l-183 5v-248l129 5q5 0 8 1t3 7v70q0 6 8 9.5t17.5 3.5t17.5 -3t8 -10v-215 q0 -7 -8.5 -10.5t-18 -3.5t-17.5 3.5t-8 10.5v78q0 3 -1 5.5t-9 2.5l-129 5v-261h129q7 0 10.5 -8t4.5 -17t-2 -16.5t-9 -7.5h-296z"/>
<glyph glyph-name="G" unicode="G" d="M518 57q0 -14 -10 -20t-27 -6q-13 0 -22 -3.5t-20 -9.5q-24 -14 -58 -25t-73 -11q-52 0 -99.5 20.5t-83.5 59.5t-57.5 97t-21.5 133q0 92 22 161.5t60 116t89.5 70t110.5 23.5q22 0 39 -4t32 -8.5t27.5 -8.5t25.5 -4q19 0 28.5 5t20.5 4t17 -9t5 -22l-11 -160q0 -5 -8 -7 t-17 -2t-16.5 2t-7.5 7q0 44 -11 75t-29.5 50.5t-44.5 28.5t-56 9q-43 0 -78 -22.5t-59.5 -62t-38 -93t-13.5 -116.5q0 -56 10.5 -108t32 -93t55 -65.5t79.5 -24.5q42 0 79.5 15t53.5 36v131h-102q-6 0 -9 7.5t-3 17t3 17t9 7.5h227q7 0 10 -7.5t3 -17t-3 -17t-9 -7.5h-51 v-159z"/>
<glyph glyph-name="H" unicode="H" d="M423 306h-242v-257h88q7 0 10.5 -7.5t4.5 -17t-2 -17t-9 -7.5h-225q-7 0 -10.5 7.5t-3 17t5 17t13.5 7.5h50v550h-72q-7 0 -10.5 7.5t-3.5 17t3 17t11 7.5h197q8 0 12 -7.5t4 -17t-4 -17t-11 -7.5h-48v-246h242v246h-73q-8 0 -11.5 7.5t-3.5 17t3.5 17t10.5 7.5h201 q8 0 12 -7.5t3.5 -17t-5 -17t-12.5 -7.5h-47v-550h76q7 0 11 -7.5t4 -17t-3.5 -17t-10.5 -7.5h-217q-8 0 -11 7.5t-2.5 17t4.5 17t11 7.5h60v257z"/>
<glyph glyph-name="I" unicode="I" d="M322 599v-550h179q9 0 12.5 -7.5t3.5 -17t-4.5 -17t-11.5 -7.5h-396q-9 0 -13.5 7.5t-4.5 17t4.5 17t13.5 7.5h139v550h-155q-8 0 -12 7.5t-4.5 17t3.5 17t13 7.5h372q10 0 15 -7.5t5 -17t-5 -17t-15 -7.5h-139z"/>
<glyph glyph-name="J" unicode="J" d="M255 39q59 0 86 25.5t27 64.5v470h-119q-8 0 -12 7.5t-4.5 17t3.5 17t13 7.5h282q10 0 15 -7.5t5 -17t-5 -17t-15 -7.5h-85v-488q0 -27 -14.5 -50.5t-40 -41t-59.5 -27.5t-73 -10q-58 0 -101 14t-70 28q-12 6 -23.5 14t-13.5 29l-8 77q-2 15 5.5 21t30.5 6q13 0 21 -1.5 t12.5 -7.5t7.5 -16.5t6 -28.5q6 -35 41 -56.5t88 -21.5z"/>
<glyph glyph-name="K" unicode="K" d="M187 287v-238h90q7 0 10.5 -7.5t3.5 -17t-3 -17t-9 -7.5h-225q-4 0 -6.5 7.5t-2 17t3.5 17t10 7.5h50v550h-72q-7 0 -10.5 7.5t-3.5 17t3 17t11 7.5h202q8 0 12 -7.5t4 -17t-4 -17t-11 -7.5h-53v-264l23 9q31 27 61 59.5t57 66.5t49.5 67t37.5 62h-77q-6 0 -10 7.5t-4 17 t4.5 17t14.5 7.5h201q11 0 16 -7.5t5 -16.5t-5.5 -17t-15.5 -9q-33 -5 -50 -12t-25 -18q-17 -23 -38.5 -50t-45 -55t-48 -55.5t-47.5 -50.5l-3 -22q15 -12 35.5 -32.5t43 -45.5t46 -53t44 -54t37.5 -48t27 -36q5 -8 13 -11t16 -3h42q10 0 14 -8t3 -18t-5.5 -18t-11.5 -8h-99 q-17 0 -30 8.5t-27 30.5q-6 10 -21 31t-34.5 47.5t-42 55t-45 54t-43 45.5t-35.5 28z"/>
<glyph glyph-name="L" unicode="L" d="M322 648q9 0 13 -7.5t3.5 -17t-5 -17t-12.5 -7.5h-100v-550h164q36 1 57.5 5.5t33.5 11.5t16.5 16t5.5 21l8 95q1 7 9.5 10t18.5 2.5t18 -4t8 -10.5l-7 -169q0 -14 -10.5 -20.5t-23.5 -6.5h-456q-10 0 -15.5 7.5t-5.5 17t5 17t16 7.5h80v550h-107q-6 0 -9 7.5t-3 17t3 17 t9 7.5h286z"/>
<glyph glyph-name="M" unicode="M" d="M447 507l-139 -298q-2 -3 -9.5 -5t-12.5 -2q-6 0 -11.5 1.5t-7.5 5.5l-128 287l-11 -6v-399q0 -23 16 -32.5t28 -10.5l52 -3q9 0 13.5 -7.5t4.5 -15.5t-4.5 -15t-13.5 -7h-196q-9 0 -13 8t-4 18t4 18t13 8h12q5 0 10.5 1t10 6t7 15.5t2.5 29.5l10 495h-52q-8 0 -12 7.5 t-4 17t4.5 17t12.5 7.5h103q11 0 16 -10l149 -321h16l143 312q2 7 8 13t11 6h107q8 0 12 -7.5t3.5 -17t-5 -17t-12.5 -7.5h-43v-550h40q7 0 11 -7.5t4 -17t-3.5 -17t-10.5 -7.5h-197q-8 0 -11 7.5t-2.5 17t4.5 17t11 7.5h76v452z"/>
<glyph glyph-name="N" unicode="N" d="M512 7q0 -10 -7.5 -15t-17 -5.5t-19 3t-13.5 10.5l-296 506l-12 -6l17 -409q1 -23 12.5 -32.5t23.5 -10.5l52 -3q9 0 13.5 -7.5t4.5 -15.5t-4.5 -15t-13.5 -7h-201q-9 0 -13 8t-4 18t4 18t13 8h12q5 0 12 1t13.5 6t11 15.5t4.5 29.5l-6 495h-73q-8 0 -12 7.5t-4 17 t4.5 17t12.5 7.5h125q11 0 16 -10l284 -492l13 4l-12 378q-1 29 -15.5 48.5t-56.5 24.5l-35 3q-8 1 -11.5 7.5t-3.5 13.5t4 13t11 6l212 6q10 0 15 -8t5 -17.5t-5 -18t-15 -9.5l-24 -2q-26 0 -26 -36z"/>
<glyph glyph-name="O" unicode="O" d="M562 333q0 -84 -21.5 -149t-58.5 -110t-87 -68.5t-107 -23.5q-47 0 -92 18.5t-80 57t-56 96.5t-21 138t20 148t55 117.5t82.5 77.5t102.5 28q48 0 95 -18.5t84.5 -58.5t60.5 -102.5t23 -150.5zM470 323q0 139 -44.5 214.5t-129.5 75.5q-39 0 -70.5 -24t-53 -63.5 t-33 -91.5t-11.5 -109q0 -55 8.5 -107.5t29 -94t53.5 -66.5t81 -25q31 0 61.5 15t54.5 49.5t39 90t15 136.5z"/>
<glyph glyph-name="P" unicode="P" d="M232 287v-238h121q9 0 12.5 -7.5t3.5 -17t-4.5 -17t-11.5 -7.5h-274q-9 0 -13.5 7.5t-4.5 17t4.5 17t13.5 7.5h75v550h-99q-8 0 -12 8t-4.5 17t3.5 16.5t13 7.5l141 -4l143 4q44 1 81 -9t63.5 -31t41.5 -52t15 -72q0 -39 -15 -74.5t-45 -63t-74 -43.5t-101 -16h-73z M232 332h72q42 0 71 13t47.5 33t27 44t8.5 46q0 30 -11 54t-29.5 41t-44.5 26.5t-56 9.5h-85v-267z"/>
<glyph glyph-name="Q" unicode="Q" d="M39 292q0 80 20 148t55 117.5t82.5 77.5t102.5 28q48 0 95 -18.5t84.5 -58.5t60.5 -102.5t23 -150.5q0 -68 -14 -123t-38 -96.5t-57 -70t-71 -43.5v-9q17 -11 33 -26t29 -30.5t22 -31t13 -26.5q5 -16 22 -8l29 19q4 3 10.5 -1.5t11 -11.5t6.5 -14t-2 -10q-8 -6 -20.5 -15 t-26.5 -18t-28 -16.5t-25 -10.5q-8 -3 -21.5 3.5t-16.5 24.5q-5 26 -15.5 50.5t-24 46t-29 39t-30.5 29.5q-8 -1 -15.5 -1.5t-15.5 -0.5q-47 0 -92 18.5t-80 57t-56 96.5t-21 138zM470 323q0 139 -44.5 214.5t-129.5 75.5q-39 0 -70.5 -24t-53 -63.5t-33 -91.5t-11.5 -109 q0 -47 8.5 -98.5t29 -95t53.5 -71.5t81 -28q31 0 61.5 15t54.5 49.5t39 90t15 136.5z"/>
<glyph glyph-name="R" unicode="R" d="M190 301v-252h101q9 0 12.5 -7.5t3.5 -17t-4.5 -17t-11.5 -7.5h-246q-9 0 -13.5 7.5t-4.5 17t4.5 17t13.5 7.5h67v550h-83q-8 0 -12 8t-4.5 17t3.5 16.5t13 7.5l135 -4l133 4q38 1 73.5 -9t63 -31t44 -52t16.5 -72q0 -20 -7 -45.5t-25 -50t-48.5 -44t-77.5 -28.5v-12 q20 -5 37 -17t27 -23q16 -18 33.5 -49t33 -62.5t28.5 -58.5t21 -38q5 -8 13 -8h53q11 0 17 -7.5t6.5 -16.5t-5 -16.5t-18.5 -7.5h-104q-13 0 -21 4t-14 16l-25 50t-26.5 52t-28 50.5t-28.5 45.5q-29 41 -57 62t-63 21h-25zM190 348h72q42 0 70 10.5t45 27.5t24 38.5t7 43.5 q0 60 -32.5 95.5t-92.5 35.5h-93v-251z"/>
<glyph glyph-name="S" unicode="S" d="M93 20q0 14 -0.5 30.5t-0.5 33.5q-1 21 -1 42.5v41.5q0 8 8 12t18 5t18.5 -1.5t8.5 -7.5q2 -33 11.5 -58.5t24.5 -43.5q20 -23 48.5 -33.5t64.5 -10.5q34 0 60 11.5t44 29.5t27 40.5t9 45.5q0 22 -6.5 42t-24 38t-48 32.5t-77.5 25.5q-57 13 -94 32.5t-58.5 43t-30 50.5 t-8.5 54q0 33 12.5 66.5t39.5 60.5t68.5 44t99.5 17q38 0 64 -7t40 -7q8 0 20 3t25 3q28 0 28 -18l-5 -147q0 -6 -7.5 -9.5t-17.5 -3.5t-18 3t-8 9q0 63 -29 94q-31 32 -96 32q-31 0 -56 -9.5t-43 -26t-27.5 -37.5t-9.5 -43q0 -53 36.5 -87.5t111.5 -48.5q60 -12 98.5 -32 t61.5 -46t32 -57t9 -64q0 -35 -14.5 -67.5t-42.5 -58t-68 -41t-92 -15.5q-38 0 -70.5 4.5t-47.5 4.5q-18 0 -29 -2.5t-28 -2.5t-23.5 7t-6.5 27z"/>
<glyph glyph-name="T" unicode="T" d="M203 606q-31 0 -51 -6t-31.5 -16.5t-16 -25.5t-4.5 -32v-77q0 -6 -8 -8.5t-17.5 -2t-18 3t-8.5 7.5l-3 178q0 7 6.5 14t17.5 7h458q11 0 17.5 -6.5t6.5 -13.5l-2 -172q0 -7 -8.5 -10t-18 -3t-17.5 3.5t-8 9.5l-3 84q0 24 -24 44.5t-69 21.5h-66v-557h126q6 0 10.5 -7.5 t5.5 -17t-3.5 -17t-16.5 -7.5h-308q-10 0 -15.5 7.5t-5.5 17t5 17t16 7.5h108v557h-54z"/>
<glyph glyph-name="U" unicode="U" d="M537 596q-11 -1 -17 -13.5t-9 -30.5t-4 -39.5t-1 -41.5l-1 -304q0 -51 -18.5 -86t-47.5 -57t-65 -32t-70 -10q-44 0 -81 11.5t-63.5 31.5t-41.5 48.5t-15 63.5v462h-68q-7 0 -12 7.5t-5.5 17t3 17t14.5 7.5h206q11 0 17 -7.5t6 -17t-5.5 -17t-16.5 -7.5h-61v-423 q0 -63 34 -97t95 -34q24 0 49.5 7t46.5 23.5t35 43.5t14 68v286q0 25 -1 46.5t-5 37.5t-10.5 26t-16.5 11l-50 7q-8 0 -12.5 7.5t-4.5 16.5t4 16t13 7h191q10 0 14.5 -7.5t4.5 -16.5t-5 -17t-14 -8z"/>
<glyph glyph-name="V" unicode="V" d="M452 548q13 49 -19 51l-55 2q-8 0 -12 7.5t-4 16.5t5 16t16 7h172q10 0 15 -6.5t5 -14.5t-4 -15.5t-12 -10.5l-10 -3q-8 -2 -14.5 -6.5t-13.5 -14.5t-14 -27.5t-16 -46.5l-144 -495q-5 -15 -16 -20.5t-25 -5.5q-21 0 -31 5.5t-15 21.5l-182 590h-48q-8 0 -12 7.5t-4 17 t3.5 17t11.5 7.5h225q8 0 11.5 -7.5t3.5 -17t-4.5 -17t-12.5 -7.5h-95l154 -504h14z"/>
<glyph glyph-name="W" unicode="W" d="M403 599q-8 0 -11.5 7.5t-3.5 17t3.5 17t10.5 7.5h186q8 0 12 -7.5t3.5 -17t-5 -17t-12.5 -7.5h-36q-8 -151 -28.5 -302t-49.5 -294q-3 -14 -16 -17.5t-25 -3.5q-17 0 -23.5 4.5t-11.5 18.5l-90 262h-11l-85 -263q-5 -15 -19 -18.5t-26 -3.5q-14 0 -24.5 3.5t-13.5 20.5 q-26 144 -46 292.5t-31 300.5h-48q-7 0 -10.5 7.5t-3.5 17t3 17t11 7.5h198q8 0 12 -7.5t4 -17t-4 -17t-11 -7.5h-80q9 -118 22.5 -236t37.5 -229h20l80 240q5 15 12 21t16 6q11 0 16.5 -3.5t10.5 -17.5l86 -246h17q12 52 21 113t15.5 122.5t9.5 120.5t3 109h-85z"/>
<glyph glyph-name="X" unicode="X" d="M241 648q8 0 12 -7.5t4 -17t-4 -17t-11 -7.5h-62q52 -108 125 -207h16q32 51 58.5 102.5t50.5 104.5h-72q-8 0 -11.5 7.5t-3.5 17t3.5 17t10.5 7.5h188q8 0 12 -7.5t3.5 -17t-5 -17t-12.5 -7.5h-42q-37 -64 -74.5 -127t-82.5 -123v-10q53 -71 99.5 -143t89.5 -147h51 q7 0 11 -7.5t4 -17t-3.5 -17t-10.5 -7.5h-214q-8 0 -11 7.5t-2.5 17t4.5 17t11 7.5h71q-31 59 -66.5 115t-77.5 113h-15q-38 -56 -68 -112t-59 -116h91q7 0 10.5 -7.5t4.5 -17t-2 -17t-9 -7.5h-215q-7 0 -10.5 7.5t-3 17t5 17t13.5 7.5h40q41 71 84 136.5t90 130.5v15 q-47 64 -87 131t-77 137h-52q-7 0 -10.5 7.5t-3.5 17t3 17t11 7.5h200z"/>
<glyph glyph-name="Y" unicode="Y" d="M324 348q30 51 56 101t50 109q7 17 2.5 29t-27.5 12h-40q-8 0 -11.5 7.5t-3.5 17t3.5 17t10.5 7.5h191q8 0 12 -7.5t3.5 -17t-5 -17t-12.5 -7.5h-37q-41 -82 -83.5 -158t-87.5 -150v-242h109q9 0 12.5 -7.5t3.5 -17t-4.5 -17t-11.5 -7.5h-276q-9 0 -13.5 7.5t-4.5 17 t4.5 17t13.5 7.5h89v222q-56 80 -106 162t-96 166h-42q-7 0 -10.5 7.5t-3.5 17t3 17t11 7.5h207q8 0 12 -7.5t4 -17t-4 -17t-11 -7.5h-78q35 -67 72.5 -129.5t82.5 -121.5h16z"/>
<glyph glyph-name="Z" unicode="Z" d="M99 0q-6 0 -13 9t-12.5 21t-7.5 23t1 15l370 513l-12 23l-219 -12q-26 -2 -36.5 -23.5t-14.5 -50.5l-6 -32q-1 -7 -9.5 -10.5t-18.5 -3.5t-18 3.5t-7 10.5l11 114q2 24 13.5 36.5t28.5 11.5l133 -4l207 4q7 0 14.5 -9t12.5 -21t6.5 -24.5t-2.5 -18.5l-365 -514l11 -18 l257 22q29 3 42.5 28t18.5 76q1 8 9 10.5t17.5 0.5t17 -8t6.5 -14l-14 -132q-2 -14 -6.5 -20t-15.5 -6l-124 4z"/>
<glyph glyph-name="bracketleft" unicode="[" d="M461 685q-20 -3 -45 -4t-50 -1t-47.5 1t-36.5 4q-5 -195 -5 -385t5 -387q12 2 35 3t50 1t53.5 -1t46.5 -3q9 -1 12.5 -10t3.5 -19.5t-4.5 -19t-11.5 -8.5q-26 2 -57.5 3.5t-65.5 2t-68 -0.5t-63 -4q-6 -1 -7.5 1t-1.5 6v863q0 5 1.5 7.5t10.5 2.5q30 -3 64 -4.5 t67.5 -1.5t63 1.5t50.5 5.5q10 2 15 -6t5 -18.5t-5 -19.5t-15 -9z"/>
<glyph glyph-name="backslash" unicode="\" d="M543 -81q10 -15 3.5 -27.5t-20 -17t-30 1.5t-26.5 26q-100 196 -205 394t-208 389q-8 18 -1.5 30t19.5 16.5t28.5 -1.5t24.5 -24q100 -195 204.5 -394t210.5 -393z"/>
<glyph glyph-name="bracketright" unicode="]" d="M139 685q-10 0 -15 9t-5 19.5t4.5 18.5t15.5 6q21 -4 50.5 -5.5t63 -1.5t67.5 1.5t64 4.5q9 0 10.5 -2.5t1.5 -7.5v-863q0 -4 -1.5 -6t-7.5 -1q-29 3 -63 4t-68 0.5t-66 -2t-57 -3.5q-8 0 -12 8.5t-4 19t3.5 19.5t12.5 10q19 2 46 3t54 1t50 -1t35 -3q5 197 5 387t-5 385 q-14 -3 -36.5 -4t-47.5 -1t-50.5 1t-44.5 4z"/>
<glyph glyph-name="asciicircum" unicode="^" d="M531 341q6 -11 -1 -21t-18 -15.5t-23 -5.5t-16 8l-164 320h-18l-171 -326q-5 -8 -16.5 -8t-22.5 5t-17.5 15t-0.5 21l202 377q4 9 13.5 13t20 4.5t20 -3.5t13.5 -12z"/>
<glyph glyph-name="underscore" unicode="_" d="M551 -91q12 0 17.5 -11t5 -23.5t-7 -23.5t-18.5 -11h-500q-13 0 -20 11t-7.5 23.5t4.5 23.5t16 11h510z"/>
<glyph glyph-name="grave" unicode="`" d="M205 609q-11 14 -8.5 28.5t12 26.5t24.5 20t30 10.5t28.5 -2t19.5 -18.5l124 -280q3 -8 -2 -17t-13 -14.5t-17 -6.5t-14 7z"/>
<glyph glyph-name="a" unicode="a" d="M397 227q-131 -5 -194.5 -28t-63.5 -74q0 -37 25.5 -59.5t69.5 -22.5q41 0 85.5 13.5t73.5 43.5zM398 45l-7 2q-35 -23 -82 -38.5t-95 -15.5q-79 0 -119 34.5t-40 84.5q0 41 23 69.5t67.5 47t108.5 27.5t145 12l2 47q1 28 -6 48t-19.5 33t-29 19t-34.5 6q-32 0 -58 -10.5 t-40 -20.5q-5 -3 -5.5 -8t-0.5 -12q0 -30 -12.5 -42.5t-34.5 -12.5q-17 0 -32.5 9t-13.5 44q1 13 4.5 24t19.5 19q23 12 52.5 23t60.5 19t60 13t51 5q60 0 87.5 -39.5t27.5 -101.5l-9 -268l78 21q6 2 12.5 -4t9.5 -15t2 -17t-9 -11q-9 -3 -28 -10t-40 -14t-39.5 -13.5 t-26.5 -7.5q-15 -3 -18 8z"/>
<glyph glyph-name="b" unicode="b" d="M298 44q22 0 48.5 8.5t49.5 29.5t38 57t15 91q0 34 -12.5 64t-32.5 52t-46.5 35t-54.5 13q-30 1 -59.5 -10t-52.5 -34v-233q0 -30 26.5 -51.5t80.5 -21.5zM107 621l-66 -13q-6 -1 -9.5 7.5t-5 19t-0.5 20t6 10.5q14 2 38 6.5t44 9.5q19 5 34 10l24 8q7 2 19.5 -5.5 t9.5 -27.5q-8 -63 -10.5 -128.5t-4.5 -119.5l12 -8q26 19 58 32.5t68 13.5q46 0 83.5 -18t64.5 -49t42 -72t15 -86q0 -62 -23 -107.5t-58.5 -75.5t-79 -45t-85.5 -15q-33 0 -56 6.5t-36 11.5l-31 -25q-4 -4 -13 -3t-18 5t-15 10.5t-4 14.5q1 4 2.5 16t2.5 26t1.5 29t0.5 25 v509z"/>
<glyph glyph-name="c" unicode="c" d="M387 340q-5 34 -23 54t-62 20q-34 0 -62 -9t-48.5 -30.5t-32 -56t-11.5 -85.5q0 -46 13.5 -79t36.5 -54.5t53 -31.5t63 -10q64 0 108.5 18t71.5 35q8 5 16.5 -1t14.5 -16.5t6.5 -21.5t-7.5 -17q-48 -32 -108 -47t-112 -15q-55 0 -99 16.5t-75 46t-47.5 68.5t-16.5 84 q0 65 20 113.5t53 80.5t75.5 47.5t88.5 15.5q28 0 53 -5.5t45 -13.5t35 -16.5t24 -15.5q19 -14 19 -43v-44q0 -24 -16.5 -33.5t-32.5 -9.5q-22 0 -30 11t-13 45z"/>
<glyph glyph-name="d" unicode="d" d="M400 382q-19 14 -48.5 21.5t-58.5 7.5q-27 0 -54 -10.5t-48 -31t-34.5 -52t-13.5 -73.5q0 -49 11.5 -83.5t31.5 -57t48.5 -33t61.5 -10.5q23 0 52.5 6.5t51.5 22.5v293zM405 24l-12 7q-31 -19 -62 -28.5t-76 -9.5q-42 0 -78.5 18t-63 49t-41.5 73t-15 89q0 50 19 93 t51 74.5t73 49.5t86 18q30 0 61.5 -5.5t54.5 -15.5l3 185l-80 -8q-11 -1 -16.5 6t-6.5 16t2.5 17t9.5 9q32 6 64.5 15t60.5 18q8 2 14 4t11 2q9 0 13.5 -6.5t3.5 -23.5l-7 -253v-343h70q5 0 8 -7t4 -15.5t-1.5 -16t-8.5 -9.5q-32 -9 -66 -18t-54 -15q-6 -2 -12 -2.5t-7 8.5z "/>
<glyph glyph-name="e" unicode="e" d="M151 220q1 -85 36.5 -125.5t101.5 -40.5q31 0 63.5 4t63 10t57 13.5t46.5 15.5q6 3 12.5 -1.5t10.5 -11.5t4.5 -14t-4.5 -10q-26 -13 -57.5 -25t-65 -21.5t-68 -15t-67.5 -5.5q-52 0 -92.5 16t-68 44.5t-41.5 67t-14 83.5q0 61 21 109.5t54.5 82t76 51.5t85.5 18 q47 0 86.5 -15t68 -43t44 -68.5t15.5 -90.5q0 -13 -5.5 -20.5t-20.5 -8.5zM434 266q-2 28 -9.5 55.5t-23 49t-40 34.5t-60.5 13q-32 0 -58.5 -12t-47 -33t-32.5 -48.5t-13 -58.5h284z"/>
<glyph glyph-name="f" unicode="f" d="M500 625q-57 0 -96 5t-62 5q-30 0 -49 -20.5t-19 -44.5q0 -12 1 -28t2 -33.5t2 -34.5t1 -30h190q10 0 14.5 -8t4.5 -18t-5 -18t-12 -8h-184l10 -337l169 -8q6 0 9.5 -7.5t3.5 -16.5t-3 -16t-10 -7h-354q-5 0 -7.5 7t-2.5 15t2.5 15.5t7.5 7.5l104 10l-10 337h-93 q-4 0 -5.5 8t-1 18t2.5 18t5 8h89q-1 16 -1.5 34t-0.5 33q-1 18 -1 34q0 22 11 49.5t32 50.5t51.5 39t69.5 16q30 0 63 -1.5t78 0.5q9 0 12.5 -11.5t2.5 -25.5t-6.5 -25.5t-14.5 -11.5z"/>
<glyph glyph-name="g" unicode="g" d="M552 -37q0 -41 -19.5 -75t-54.5 -58.5t-82.5 -38t-104.5 -13.5q-112 0 -169 39t-57 100q0 34 25 62t61 45q-12 7 -24 18.5t-12 31.5q0 24 19 43t42 27v17q-45 14 -67.5 46.5t-22.5 79.5q0 38 13.5 70.5t38.5 56.5t61 37.5t80 13.5q27 0 48 -5t37 -12.5t28.5 -17 t21.5 -17.5l117 10q8 0 12 -10.5t5 -23t-2.5 -23t-10.5 -10.5h-89q4 -11 7 -28t3 -32q0 -32 -11 -60t-32 -48.5t-52.5 -32.5t-73.5 -12h-18.5t-16.5 1q-11 -5 -22.5 -11t-22 -13.5t-17 -16t-6.5 -16.5q0 -5 1 -10t6 -8.5t15.5 -5.5t29.5 -2q15 0 38 1.5t47 4t45.5 4 t33.5 1.5q34 0 62 -5.5t48 -18t31 -33.5t11 -52zM374 301q0 61 -21.5 88t-77.5 27q-62 0 -86 -29.5t-24 -90.5t25.5 -85.5t88.5 -24.5q22 0 40 5t30 18t18.5 35.5t6.5 56.5zM476 -56q0 30 -20.5 44t-67.5 14h-203q-22 -6 -37.5 -28t-15.5 -54q0 -19 8 -35.5t27 -28.5 t49 -18.5t74 -6.5q85 0 135.5 30.5t50.5 82.5z"/>
<glyph glyph-name="h" unicode="h" d="M41 620q-7 0 -10 6t-3 14t2 15t6 8q17 4 39 8.5t42 9.5q19 5 36.5 10.5t23.5 7.5q11 4 17.5 -2.5t5.5 -17.5l-11 -265l14 -9q13 9 33.5 19.5t45.5 19.5t51.5 15t50.5 6q66 0 99.5 -48t35.5 -139q1 -65 -2 -118t-7 -108l61 -11q9 -2 12.5 -8.5t3 -13.5t-5 -13t-10.5 -6 h-193q-8 0 -11.5 6.5t-3.5 14.5t4.5 14.5t12.5 7.5l53 10q2 23 3 51t2 56.5t1 56.5v52q-1 43 -7.5 69.5t-18.5 41t-29 19.5t-38 5q-23 0 -44.5 -5t-41 -13.5t-36 -19.5t-28.5 -22v-291l79 -10q9 -1 13 -8t3.5 -14.5t-5 -14t-11.5 -6.5h-197q-8 0 -12 6t-4.5 13.5t3.5 14.5 t13 9l41 9v571z"/>
<glyph glyph-name="i" unicode="i" d="M312 522q-20 0 -34.5 12t-14.5 33t8 38t20.5 29t28 18.5t31.5 6.5q20 0 33.5 -12t13.5 -36q0 -37 -22.5 -63t-63.5 -26zM278 394l-162 3q-7 0 -10 6t-1.5 13.5t6.5 14t13 6.5q41 1 95.5 6.5t98.5 12.5q13 2 21 1t12.5 -5t5.5 -9t1 -10v-377l171 -13q9 -1 13 -7.5 t3.5 -14.5t-5 -14.5t-11.5 -6.5h-414q-7 0 -10.5 6t-3.5 13.5t3.5 13.5t10.5 7l163 14v340z"/>
<glyph glyph-name="j" unicode="j" d="M415 -46q0 -33 -10.5 -62.5t-33.5 -51.5t-60 -35t-90 -13q-37 0 -82 9.5t-86 34.5q-10 6 -7.5 19.5t11.5 26.5t22 20t24 0q18 -12 33.5 -22t31 -17.5t32.5 -11.5t38 -4q50 0 73.5 24.5t23.5 86.5v430l-188 -16q-7 -1 -12 6t-6.5 15.5t1.5 16t12 8.5q70 8 126.5 18 t106.5 20q27 5 33.5 -5t6.5 -21v-476zM349 522q-20 0 -34.5 12t-14.5 33t8 38t20.5 29t28 18.5t31.5 6.5q20 0 33.5 -12t13.5 -36q0 -37 -22.5 -63t-63.5 -26z"/>
<glyph glyph-name="k" unicode="k" d="M34 664q32 5 63 15t59 21q6 2 13 0t13.5 -6t10.5 -9.5t4 -11.5q-9 -115 -13 -226t-4 -225l196 181v3l-59 3q-6 0 -9 7.5t-2 16t6.5 16t15.5 7.5h167q11 0 16 -8t5 -17t-5.5 -17t-15.5 -8q-37 0 -53.5 -12.5t-27.5 -22.5l-97 -87v-19q15 -24 33.5 -52t39.5 -56t43 -51.5 t42 -38.5q20 -14 39 -6l39 18q4 2 10 -3.5t10.5 -13.5t7 -15.5t-0.5 -9.5q-9 -8 -22 -15.5t-27.5 -14t-29.5 -10.5t-28 -4q-17 0 -31.5 8t-32.5 25q-14 13 -35.5 38.5t-44.5 55.5t-43 59t-30 49l-72 -64v-110l74 -10q9 -1 13 -8t3.5 -15t-5 -14.5t-11.5 -6.5h-191 q-8 0 -12 6t-4.5 14t3.5 15t13 9l40 9v570l-68 -14q-7 0 -10 8t-3 18.5t2 19t6 9.5z"/>
<glyph glyph-name="l" unicode="l" d="M213 622l-109 -4q-9 -1 -14.5 6t-7 15.5t2.5 16t13 8.5q41 5 75 10.5t76 23.5q19 7 32.5 -6.5t11.5 -29.5v-542q-2 -35 11.5 -51.5t47.5 -16.5q30 0 65 5t70 16q7 2 12 -3t7.5 -12t1.5 -14t-7 -10q-20 -9 -43.5 -17.5t-49 -15t-50.5 -10t-47 -3.5q-104 0 -98 107v527z "/>
<glyph glyph-name="m" unicode="m" d="M247 0q-9 0 -13 6.5t-4 14.5t3.5 15t9.5 8l37 7v263q0 28 -5.5 46t-14.5 28.5t-21 14.5t-25 4q-27 0 -44 -7t-25 -16v-333l40 -7q9 -2 13 -9t3.5 -14.5t-5 -14t-11.5 -6.5h-138q-8 0 -11.5 6t-3.5 14t4 15t11 9l25 5v340l-51 -3q-8 0 -12 6.5t-4.5 15t3 16.5t11.5 10 q26 5 49.5 14t46.5 18q5 2 9.5 0t5.5 -7l9 -20l15 -6q17 11 36.5 21.5t53.5 10.5q25 0 46.5 -12.5t35.5 -35.5q21 20 54.5 34t61.5 14q33 0 55.5 -14.5t37 -38.5t20.5 -55t6 -64v-242l44 -10q8 -2 11 -8.5t2.5 -13.5t-4 -13t-9.5 -6h-147q-8 0 -11 6t-3 13.5t2.5 14t7.5 8.5 l34 7v243q0 36 -6.5 57.5t-16.5 33.5t-23.5 16t-26.5 4q-20 0 -40.5 -8t-28.5 -16q3 -9 4.5 -23t2 -28.5t0.5 -27v-17.5v-231l35 -10q8 -2 11 -8.5t2.5 -14t-4 -13.5t-9.5 -6h-141z"/>
<glyph glyph-name="n" unicode="n" d="M380 0q-8 0 -12 6.5t-4 14t4 14t12 7.5l42 6q5 55 5 112.5v103.5q0 42 -7 69t-20.5 42.5t-33 22t-44.5 6.5q-27 0 -60.5 -15t-65.5 -38v-298l86 -9q9 -1 13 -8t3.5 -15t-5 -14.5t-11.5 -6.5h-201q-8 0 -11.5 6.5t-3.5 14.5t4 15t11 8l38 7v339l-66 -3q-8 0 -12 7t-4.5 16 t3 17t11.5 8q29 2 55.5 6.5t59.5 12.5q13 4 15 -7l6 -41l8 -5q48 33 90.5 48.5t76.5 15.5q30 0 56.5 -10.5t47 -32.5t32 -54.5t10.5 -77.5q-1 -60 -3 -122t-6 -118l70 -9q8 -1 11 -7.5t2.5 -14t-4 -13.5t-9.5 -6h-189z"/>
<glyph glyph-name="o" unicode="o" d="M62 212q0 60 18.5 107t51.5 79.5t79.5 49.5t102.5 17q45 0 85.5 -14.5t71.5 -43t49 -71t18 -99.5q0 -51 -15.5 -95.5t-46 -77.5t-76 -52t-105.5 -19q-49 0 -91.5 13t-74 40t-49.5 68t-18 98zM150 248q0 -108 39 -156.5t111 -48.5q77 0 115.5 44.5t38.5 122.5 q0 45 -11.5 83t-31.5 65t-48 42.5t-61 15.5t-60.5 -11.5t-48 -33t-32 -52.5t-11.5 -71z"/>
<glyph glyph-name="p" unicode="p" d="M188 427l14 -4q26 15 63 28.5t77 13.5q42 0 77 -18t60 -49t39 -73t14 -89q0 -50 -18 -93.5t-48 -75t-70 -49.5t-85 -18q-30 0 -61.5 5.5t-54.5 15.5l7 -168l80 -12q11 -2 14.5 -9t2.5 -15t-5.5 -14.5t-10.5 -6.5h-196q-8 0 -11.5 6.5t-3.5 15t3.5 15.5t9.5 9l42 9v536 h-74q-4 0 -6 5.5t-2 12.5t2 13t5 7l98 36q6 2 15 3t12 -7zM197 75q19 -14 50.5 -19.5t56.5 -5.5q27 0 53 10t47 30t33.5 51t12.5 73q0 98 -41 144.5t-108 46.5q-23 0 -53.5 -8t-50.5 -28v-294z"/>
<glyph glyph-name="q" unicode="q" d="M480 -147l58 -12q9 -1 12.5 -8t3 -15.5t-4.5 -15t-10 -6.5h-191q-8 0 -11.5 6.5t-3.5 14.5t3.5 15t9.5 9l63 9l2 159l-18 9q-11 -5 -24.5 -8t-27.5 -5.5t-26.5 -3.5t-21.5 -1q-53 0 -95 16.5t-71 45.5t-44 68.5t-15 84.5q0 62 20 108.5t52.5 78t74.5 47.5t86 16 q27 0 52 -4.5t52 -16.5l18 7l14 19q3 5 14.5 4.5t23 -5t19 -11t3.5 -13.5q-7 -11 -12 -41t-5 -72v-479zM307 416q-29 0 -56.5 -11t-49 -35t-34.5 -62t-13 -92q0 -34 11.5 -63.5t32 -51t49 -34t62.5 -12.5q19 -1 46.5 6.5t50.5 27.5v301q-26 14 -50 20t-49 6z"/>
<glyph glyph-name="r" unicode="r" d="M254 343q35 55 83.5 88.5t103.5 33.5q44 0 68.5 -19.5t24.5 -47.5q0 -26 -14.5 -39t-36.5 -13q-15 0 -24 6t-18 13t-20.5 13t-31.5 6q-18 0 -38 -11.5t-38.5 -29.5t-34.5 -41t-26 -47v-198l172 -13q7 -1 10 -8t2.5 -15t-3.5 -14.5t-9 -6.5h-331q-6 0 -9.5 6.5t-3.5 14.5 t3 14.5t9 7.5l80 10v319l-115 15q-2 0 -4 6.5t-2 14t2 14.5t7 7q16 1 35 4l38 6t35.5 6t28.5 6q14 3 18.5 -0.5t6.5 -11.5l14 -93z"/>
<glyph glyph-name="s" unicode="s" d="M93 141q0 9 9.5 13.5t21.5 5t22 -3.5t10 -11q0 -10 7 -39q8 -34 43 -51t94 -17q31 0 57.5 7t45.5 18.5t29.5 27t10.5 33.5q0 32 -29 49.5t-99 20.5q-106 5 -157.5 38t-51.5 88q0 33 15.5 60t42.5 45.5t62.5 29t74.5 10.5t71 -6.5t46 -10.5q9 -2 19.5 -1t24.5 3t18.5 -5 t6.5 -23l10 -92q1 -9 -8 -14t-20 -6t-21 2t-11 10q-2 10 -4 18.5t-5 18.5q-8 26 -44 42t-84 16q-60 0 -93 -24t-33 -55q0 -20 9 -33t27 -21t46 -12t67 -6q42 -2 78 -10.5t63 -24t42.5 -38.5t15.5 -54q0 -35 -17 -62t-46.5 -46t-70.5 -28.5t-89 -9.5q-38 0 -69 4t-54 9 q-13 2 -23.5 0.5t-22.5 -1.5q-28 0 -29 28z"/>
<glyph glyph-name="t" unicode="t" d="M199 444l5 113q1 11 12 15.5t28 4.5t29 -4.5t12 -14.5l-6 -114h191q10 1 15 -7t5 -18t-4.5 -18.5t-11.5 -8.5h-197l-12 -248q0 -80 59 -80q28 0 73.5 3.5t104.5 13.5q7 1 12 -4.5t7.5 -13t1.5 -15t-7 -9.5q-19 -7 -49 -15t-62.5 -15t-63 -11.5t-50.5 -4.5q-57 0 -84.5 32 t-22.5 95l12 272h-85q-6 0 -8.5 7.5t-2.5 17.5t2.5 18.5t7.5 8.5h89z"/>
<glyph glyph-name="u" unicode="u" d="M425 388h-60q-9 0 -13.5 6t-4.5 14t3.5 15t11.5 9q23 6 52.5 14.5t54.5 16.5q6 2 9 2q12 0 16.5 -10t4.5 -27v-354l57 13q9 2 15 -4t9 -14.5t1.5 -16.5t-8.5 -11l-103 -44q-12 -5 -17.5 -4t-10.5 9l-12 21l-12 5q-38 -21 -75.5 -28t-68.5 -7q-30 0 -60.5 8.5t-54.5 28.5 t-39.5 53.5t-15.5 84.5q0 106 9 214h-57q-9 0 -14 6t-6.5 13.5t1.5 15t11 9.5q21 6 51 14.5t59 18.5q2 1 9.5 3.5t9.5 2.5q9 0 12.5 -14.5t1.5 -47.5q-2 -26 -3 -57.5t-2 -61.5t-1.5 -54.5t-0.5 -36.5q0 -69 25 -106.5t85 -37.5q10 0 26.5 2.5t35 7.5t36.5 13.5t33 20.5v295 z"/>
<glyph glyph-name="v" unicode="v" d="M221 454q8 0 11.5 -7t3.5 -15.5t-4 -15.5t-11 -8l-45 -5q7 -33 22 -77.5t34 -90t38.5 -86.5t35.5 -67h20q13 24 31 65.5t36 88t32.5 91t21.5 76.5l-94 6q-9 0 -13 7.5t-3.5 15.5t4.5 15t12 7h214q7 0 11 -7.5t4 -16.5t-4 -16.5t-11 -8.5l-58 -5q-8 -31 -27 -83.5 t-42.5 -109.5t-48.5 -110.5t-44 -87.5q-7 -12 -17.5 -19.5t-28.5 -7.5q-13 0 -25 7t-20 22q-22 40 -45 89t-44.5 100.5t-40.5 103.5t-33 99l-73 5q-8 0 -11 7.5t-2.5 16t4 15.5t9.5 7h201z"/>
<glyph glyph-name="w" unicode="w" d="M411 93q11 25 22.5 63t21.5 81t17 87t10 82l-86 6q-9 0 -13 7t-3.5 14.5t4.5 14t12 6.5h180q7 0 10.5 -8.5t3.5 -18.5t-3.5 -18t-10.5 -8l-30 1q-5 -39 -17 -93.5t-27.5 -110.5t-33 -107t-33.5 -83q-5 -10 -11.5 -12.5t-17.5 -2.5q-17 0 -24 3t-11 13l-67 193h-12 l-61 -186q-5 -15 -18.5 -19t-25.5 -4q-13 0 -20.5 4t-14.5 21q-32 84 -56.5 182t-43.5 205l-43 -2q-8 0 -11.5 7.5t-3 17.5t4.5 18t10 8h195q8 0 11.5 -6.5t3.5 -14.5t-4 -14.5t-11 -7.5l-77 -3q4 -35 11 -79.5t16 -88.5t19.5 -83t22.5 -62h13l67 203q4 11 10 15t14 4 t17.5 -3t12.5 -12l71 -209h10z"/>
<glyph glyph-name="x" unicode="x" d="M249 454q8 0 11.5 -6.5t3.5 -14.5t-4 -15t-11 -8l-45 -5l104 -123h11l108 123l-59 6q-9 1 -13 7.5t-3.5 14.5t4.5 14.5t12 6.5h184q7 0 11 -7.5t4 -16t-4 -16t-11 -7.5q-23 0 -42 -5.5t-39 -23.5l-116 -133v-7l169 -177q13 -10 25.5 -13.5t25.5 -3.5q8 0 11 -7t2.5 -15 t-4 -15t-9.5 -7h-194q-8 0 -11.5 6.5t-3.5 14t3.5 14t11.5 7.5l59 5l-129 144h-13l-119 -142l78 -6q9 -1 13 -7.5t3.5 -14.5t-5 -14.5t-11.5 -6.5h-195q-8 0 -11.5 7t-3.5 15.5t4 16t11 8.5q17 0 31 4t25 15l143 163v11l-151 165l-60 5q-8 0 -11 7t-2.5 15.5t4 15t9.5 6.5 h199z"/>
<glyph glyph-name="y" unicode="y" d="M236 454q8 0 11.5 -6.5t3.5 -14.5t-4 -14.5t-11 -6.5l-48 -5q23 -69 57 -139.5t76 -138.5h13q12 22 26.5 57t28 73.5t24 76.5t15.5 68l-71 5q-9 0 -13 7t-3.5 15.5t4.5 15.5t12 7h181q7 0 11 -6.5t4 -15t-4 -15.5t-11 -8l-41 -5q-17 -56 -41 -121t-53 -131.5t-61.5 -131 t-66.5 -119.5q-19 -31 -34.5 -52t-31.5 -33.5t-33.5 -17.5t-39.5 -5q-34 0 -59.5 11.5t-25.5 31.5q0 4 3.5 11.5t9.5 15.5t14 14t17 6q10 0 17 -4t14.5 -9.5t17.5 -9.5t27 -4q13 0 30.5 20.5t35.5 49.5t33 61t24 55q-62 88 -110 182t-81 183l-63 5q-8 0 -11 6.5t-2.5 14.5 t4 14.5t9.5 6.5h196z"/>
<glyph glyph-name="z" unicode="z" d="M125 0q-12 0 -21 10.5t-14 24.5t-5 27t6 19l327 312l-7 17l-185 -7q-14 0 -23 -4.5t-14.5 -10.5t-8 -13t-3.5 -13l-10 -50q-2 -7 -11.5 -10.5t-20.5 -3t-20 4t-8 9.5l13 108q2 17 13 25.5t26 8.5h317q8 0 15 -10t11 -23t4 -26t-7 -20l-328 -312l7 -16l215 10 q27 2 42.5 20.5t23.5 55.5q1 7 12 9t23 0.5t21.5 -6t7.5 -10.5l-23 -95q-5 -20 -11.5 -25.5t-22.5 -5.5h-341z"/>
<glyph glyph-name="braceleft" unicode="{" d="M198 308q25 -3 54.5 -14t54.5 -28.5t41.5 -41.5t16.5 -52q0 -33 -7.5 -71.5t-7.5 -80.5q0 -27 5 -47.5t20.5 -34.5t44.5 -21t77 -7q9 0 12.5 -8.5t3.5 -18.5t-4.5 -18.5t-11.5 -8.5q-74 0 -118.5 11t-68 32t-31 51.5t-7.5 69.5q0 40 6.5 76.5t6.5 73.5q0 26 -16 44.5 t-40.5 30.5t-54 18t-56.5 6q-14 0 -14 15v63q0 4 3.5 8t10.5 4q27 0 56.5 7.5t54 20t40.5 30t16 37.5q0 37 -5.5 68t-5.5 67q0 40 9.5 68.5t34 46.5t66.5 26t107 8q10 0 15 -8.5t5 -18.5t-5 -18.5t-15 -8.5q-36 0 -62.5 -3t-44 -13t-26 -29t-8.5 -51q0 -41 7.5 -75.5 t7.5 -63.5q0 -24 -16.5 -44.5t-41 -37t-54 -28t-55.5 -16.5v-15z"/>
<glyph glyph-name="bar" unicode="|" d="M263 720q0 15 10 22.5t27 7.5q34 0 37 -30v-934q0 -17 -10.5 -26.5t-27.5 -9.5q-15 0 -25.5 9t-10.5 27v934z"/>
<glyph glyph-name="braceright" unicode="}" d="M402 323q-26 5 -55.5 16.5t-54.5 28t-41 37t-16 44.5q0 29 7.5 63.5t7.5 75.5q0 32 -8.5 51t-26 29t-44 13t-62.5 3q-10 0 -15 8.5t-5 18.5t4.5 18.5t15.5 8.5q65 0 107 -8t66.5 -26t34 -46.5t9.5 -68.5q0 -36 -5.5 -67t-5.5 -68q0 -20 16 -37.5t40.5 -30t54 -20 t56.5 -7.5q7 0 10.5 -4t3.5 -8v-63q0 -15 -14 -15q-27 0 -56.5 -6t-54 -18t-40.5 -30.5t-16 -44.5q0 -37 6.5 -73.5t6.5 -76.5q0 -39 -7.5 -69.5t-31 -51.5t-68 -32t-118.5 -11q-8 0 -12 8.5t-4 18.5t3.5 18.5t12.5 8.5q48 0 77 7t44.5 21t20.5 34.5t5 47.5q0 42 -7.5 80.5 t-7.5 71.5q0 28 16.5 52t41.5 41.5t54 28.5t55 14v15z"/>
<glyph glyph-name="asciitilde" unicode="~" d="M563 330q-6 -31 -21.5 -62t-37.5 -56t-49.5 -40.5t-58.5 -15.5q-36 0 -61 20t-45.5 44t-40 44t-46.5 20q-35 0 -62 -33.5t-41 -89.5q-2 -5 -13 -4t-23 5.5t-21 12.5t-6 18q8 28 23.5 57t36.5 53t47 39t56 15q37 0 64 -20.5t49 -45t42 -45t43 -20.5q21 0 38 10.5t30 27.5 t22 40t12 48q1 8 12 9t23 -3t21 -11.5t7 -16.5z"/>
<glyph glyph-name="uni00A0" unicode=" "/>
<glyph glyph-name="exclamdown" unicode="¡" d="M352 -133q5 -48 -17 -78.5t-55 -30.5q-34 0 -53 30t-14 78q11 97 21.5 188.5t14.5 176.5q0 9 9 14t20 5q12 0 21 -4.5t10 -15.5q7 -85 19.5 -177t23.5 -186zM354 392q0 -31 -21.5 -51t-57.5 -20q-14 0 -28 4.5t-25.5 13.5t-18.5 22t-7 31q0 29 23 51t58 22q36 0 56.5 -19 t20.5 -54z"/>
<glyph glyph-name="cent" unicode="¢" d="M263 9q-44 5 -79 23.5t-59.5 47.5t-37.5 65.5t-13 77.5q0 61 17.5 106.5t47 77t68.5 49t81 21.5l5 62q0 11 9.5 16.5t20.5 5.5t20.5 -5.5t9.5 -14.5l5 -67q39 -5 67.5 -17t42.5 -22q9 -7 14 -17t5 -33v-43q0 -18 -11.5 -23.5t-27.5 -5.5q-22 0 -30.5 10t-11.5 32 q-5 33 -28.5 51.5t-67.5 18.5q-68 0 -110 -47.5t-42 -152.5q0 -39 14 -67t37 -45.5t52.5 -26t60.5 -8.5q64 0 103.5 15.5t66.5 31.5q8 5 16.5 0t14 -14t6 -19t-7.5 -16q-44 -28 -96.5 -46t-107.5 -22l-2 -127q0 -16 -11 -24t-24 -9t-23.5 6.5t-8.5 22.5z"/>
<glyph glyph-name="sterling" unicode="£" d="M175 403q-11 30 -20 59.5t-9 64.5q0 43 15 74.5t40.5 51.5t58.5 30t69 10q43 0 73.5 -12.5t50 -30t28.5 -37t9 -32.5q0 -23 -14 -34.5t-37 -11.5q-11 0 -22 3.5t-19 10t-11.5 17t0.5 25.5q7 25 -11 41.5t-56 16.5q-19 0 -35.5 -9.5t-28.5 -26.5t-18.5 -40t-6.5 -50 q0 -42 7 -69.5t17 -50.5h177q12 0 17 -8t4.5 -18t-7.5 -18t-19 -8h-150q8 -22 13 -48t5 -63q0 -32 -9.5 -56.5t-22.5 -43t-25 -30t-18 -15.5l7 -15q9 5 27 11t37 6q15 0 31.5 -6.5t33.5 -14.5t35 -14.5t35 -6.5q32 0 56 11t40 21q8 5 16.5 0t13.5 -13.5t5.5 -18.5t-7.5 -16 q-26 -18 -63 -37.5t-86 -19.5q-23 0 -45 8.5t-44.5 19t-45 19.5t-44.5 9q-20 0 -45 -7.5t-57 -30.5q-8 -6 -15.5 -1.5t-13 12t-7 15.5t1.5 11q29 23 53 44.5t41 44.5t26 49t9 58q0 35 -6 63.5t-15 54.5h-77q-13 0 -19.5 8t-7 18t5 18t16.5 8h63z"/>
<glyph glyph-name="currency" unicode="¤" d="M81 272q0 35 10.5 67.5t29.5 59.5l-45 44q-9 9 -5 21.5t13.5 22.5t22 14.5t20.5 -3.5l46 -47q27 20 60 31t69 11t68 -10t58 -29l43 45q8 9 21.5 3.5t24.5 -17t16 -25t-3 -21.5l-45 -43q18 -26 28 -57.5t10 -66.5q0 -37 -11 -69.5t-31 -60.5l48 -46q9 -9 5 -21.5 t-13.5 -23t-22 -15t-20.5 4.5l-50 50q-55 -40 -126 -40q-35 0 -66.5 9.5t-57.5 26.5l-42 -44q-9 -9 -22.5 -5.5t-24.5 14t-16 24t4 22.5l44 43q-40 55 -40 131zM151 271q0 -35 11 -64t30.5 -51t47.5 -34t63 -12q31 0 58.5 12t47 34t31 51t11.5 64q0 36 -11.5 66t-31.5 51 t-47 33t-59 12q-36 0 -64 -12.5t-47.5 -34.5t-29.5 -51.5t-10 -63.5z"/>
<glyph glyph-name="yen" unicode="¥" d="M232 322q-46 68 -87.5 136.5t-79.5 139.5h-42q-7 0 -10.5 8t-3.5 17t3 17t11 8h207q8 0 12 -8t4 -17t-4 -17t-11 -8h-78q35 -67 72.5 -129t82.5 -121h16q30 51 56 101t50 109q7 17 2.5 28.5t-27.5 11.5h-40q-8 0 -11.5 8t-3.5 17t3.5 17t10.5 8h191q8 0 12 -8t3.5 -17 t-5 -17t-12.5 -8h-37q-37 -74 -75 -142t-77 -134h143q10 0 14.5 -8t4 -18t-5.5 -18t-14 -8h-161v-66h162q10 0 14.5 -8t4 -18t-5.5 -18t-14 -8h-161v-102h109q9 0 12.5 -8t3.5 -17t-4.5 -17t-11.5 -8h-276q-9 0 -13.5 8t-4.5 17t4.5 17t13.5 8h89v102h-149q-9 0 -13 8t-4 18 t4 18t12 8h150v66h-149q-9 0 -13 8t-4 18t4 18t12 8h115z"/>
<glyph glyph-name="brokenbar" unicode="¦" d="M263 393v327q0 15 10 22.5t27 7.5q34 0 37 -30v-327h-74zM337 149v-363q0 -17 -10.5 -26.5t-27.5 -9.5q-15 0 -25.5 9t-10.5 27v363h74z"/>
<glyph glyph-name="section" unicode="§" d="M316 -123q45 0 76.5 24.5t31.5 72.5q0 37 -24 68.5t-60 61t-77.5 57.5t-77.5 58t-60 63t-24 73q0 29 15.5 54t44.5 54q-19 20 -30 42.5t-11 47.5q0 30 12 59t36.5 52t62.5 37t90 14q44 0 76 -9t53.5 -23.5t32.5 -32.5t12 -36q2 -21 -8.5 -37.5t-36.5 -16.5q-25 0 -40 13 t-15 42q0 26 -13 42t-54 16q-59 0 -93.5 -31t-34.5 -76q0 -35 23.5 -64t58 -55t75.5 -51t75.5 -53t58 -61t23.5 -75q0 -32 -19 -55.5t-51 -46.5q28 -26 45 -54t17 -59q0 -41 -17.5 -71t-45 -49t-61 -28t-65.5 -9q-51 0 -89 10.5t-63 27t-37.5 36t-12.5 37.5q0 24 9 42t34 18 q23 0 38.5 -14t15.5 -47q0 -29 25.5 -48.5t78.5 -19.5zM432 200q0 33 -25 62t-62 57.5t-79.5 57t-76.5 58.5q-8 -17 -10.5 -32t-2.5 -24q0 -35 23.5 -66.5t59 -61.5t77.5 -59.5t79 -60.5q13 16 15 35t2 34z"/>
<glyph glyph-name="dieresis" unicode="¨" d="M197 490q-17 0 -29 10t-12 28q0 17 6.5 31.5t17 24.5t24 15.5t26.5 5.5q17 0 28 -10t11 -30q0 -31 -19 -53t-53 -22zM377 490q-17 0 -29 10t-12 28q0 17 6.5 31.5t17 24.5t24 15.5t26.5 5.5q17 0 28 -10t11 -30q0 -31 -19 -53t-53 -22z"/>
<glyph glyph-name="copyright" unicode="©" d="M12 313q0 59 23 111.5t62 91.5t91.5 62t111.5 23q62 0 115 -23t91.5 -62t60 -91.5t21.5 -111.5t-23 -111.5t-62 -91.5t-91.5 -62t-111.5 -23t-111.5 21t-91.5 59.5t-62 91.5t-23 116zM61 312q0 -51 18 -95t50 -76.5t76 -50.5t96 -18t95.5 18t75 50.5t48.5 76.5t17 95 q0 53 -18.5 98t-50.5 77.5t-75 50.5t-93 18q-51 0 -94.5 -18.5t-76 -51.5t-50.5 -77.5t-18 -96.5zM348 373q-2 20 -15 32t-36 12q-41 0 -62.5 -23.5t-21.5 -75.5t25.5 -73t63.5 -21q40 0 66 10t43 21q4 3 9.5 -2t9.5 -13.5t4.5 -17t-4.5 -11.5q-31 -18 -66 -27t-67 -9 t-58.5 10t-45 27t-28.5 40.5t-10 50.5q0 39 12 68t31.5 48.5t45.5 29.5t53 10q35 0 58.5 -12t33.5 -20q12 -8 12 -25v-37q0 -15 -9.5 -19.5t-19.5 -4.5q-12 0 -17 7t-7 25z"/>
<glyph glyph-name="ordfeminine" unicode="ª" d="M367 557q-53 -2 -88 -7t-57 -14t-31 -22t-9 -30q0 -27 17.5 -41t45.5 -14q34 0 64.5 10.5t54.5 35.5zM370 418l-8 3q-29 -19 -62 -31t-72 -12q-63 0 -95.5 28t-32.5 69q0 67 68 94t201 32l2 27q1 46 -16 66.5t-46 20.5q-27 0 -47.5 -8.5t-33.5 -16.5q-3 -3 -3.5 -2 t-0.5 -5q0 -24 -10 -34.5t-28 -10.5q-7 0 -14 1.5t-12.5 6t-8.5 13.5t-3 23q1 10 4 19t16 16q19 10 43 18.5t48.5 15t48.5 10.5t42 4q49 0 71 -31.5t22 -82.5l-8 -217l63 19q5 1 10 -4t8 -12.5t2 -14.5t-7 -10q-8 -2 -22.5 -7.5t-30.5 -11t-31 -10.5t-22 -7q-11 -3 -17 7z "/>
<glyph glyph-name="guillemotleft" unicode="«" d="M429 459q7 10 18.5 10.5t21 -5.5t14.5 -15.5t-1 -19.5l-108 -191v-15l113 -193q5 -9 0.5 -19t-13.5 -16.5t-19.5 -7t-17.5 8.5l-148 197q-9 13 -10.5 33t8.5 34zM236 459q7 10 18.5 10.5t21 -5.5t14.5 -15.5t-1 -19.5l-108 -191v-15l113 -193q5 -9 0.5 -19t-13.5 -16.5 t-19.5 -7t-17.5 8.5l-148 197q-9 13 -10.5 33t8.5 34z"/>
<glyph glyph-name="logicalnot" unicode="¬" d="M446 239h-378q-13 0 -19.5 11.5t-7 25.5t5 25.5t16.5 11.5h432q11 0 20.5 -7t9.5 -24v-230q0 -13 -12.5 -19.5t-27 -7t-27 5t-12.5 16.5v192z"/>
<glyph glyph-name="registered" unicode="®" d="M90 503q0 43 16.5 81.5t45 67t67 45t81.5 16.5q45 0 83.5 -16.5t66.5 -45t44 -67t16 -81.5t-16.5 -81.5t-45 -67t-67 -45t-81.5 -16.5t-81.5 15.5t-67 43.5t-45 66.5t-16.5 84.5zM128 502q0 -38 13 -70t36 -55t54.5 -36.5t69.5 -13.5q35 0 66 13.5t54 36.5t36.5 55 t13.5 70q0 39 -13.5 71.5t-37 55.5t-54.5 36t-66 13q-40 0 -71.5 -13.5t-54 -37t-34.5 -56t-12 -69.5zM271 494v-62h18q3 0 4.5 -4t1 -9t-2 -9t-3.5 -4h-65q-3 0 -4 4t-1 9t1 9t4 4h13v152h-17q-2 0 -3.5 4t-1.5 9t1.5 9t3.5 4h93q21 0 42 -13t21 -39q0 -23 -15.5 -37 t-37.5 -16v-5q9 -2 17 -10t15 -18.5t12.5 -21t9.5 -16.5q0 -2 2 -2h2h13q3 0 5 -4t2 -9t-1.5 -9t-5.5 -4h-33q-7 0 -14.5 13.5t-17 30t-21.5 30.5t-29 14h-8zM271 522h29q17 0 28 8.5t11 22.5q0 18 -10 24.5t-30 6.5h-28v-62z"/>
<glyph glyph-name="macron" unicode="¯" d="M430 560q11 0 16.5 -8.5t5.5 -21.5q0 -31 -27 -31h-250q-27 0 -27 29q0 14 5.5 23t16.5 9h260z"/>
<glyph glyph-name="degree" unicode="°" d="M130 536q0 35 13.5 66t36.5 54t54 36.5t66 13.5q37 0 68 -13.5t53.5 -36.5t35.5 -54t13 -66t-13.5 -66t-36.5 -54t-54 -36.5t-66 -13.5t-66 12.5t-54 35t-36.5 53.5t-13.5 69zM195 535q0 -48 28.5 -80t77.5 -32q22 0 40.5 8.5t32.5 23.5t22 35.5t8 44.5q0 51 -29.5 82 t-74.5 31q-51 0 -78 -32.5t-27 -80.5z"/>
<glyph glyph-name="plusminus" unicode="±" d="M504 111q12 0 17 -11t4.5 -24.5t-7.5 -24.5t-19 -11h-390q-13 0 -19.5 11t-7 24.5t5 24.5t16.5 11h400zM264 424l-5 158q0 12 12.5 17.5t27.5 5t27.5 -6.5t12.5 -17l-4 -157l158 2q12 0 18.5 -11t6.5 -24.5t-5.5 -24.5t-17.5 -11l-160 2l5 -154q0 -13 -11.5 -20t-26 -7.5 t-26.5 5.5t-12 19l2 157l-159 -2q-13 0 -19 11t-6.5 24.5t5.5 24.5t17 11z"/>
<glyph glyph-name="two.sups" unicode="²" d="M366 760q0 43 -24 61t-54 18q-32 0 -46.5 -15t-14.5 -38t-13 -28.5t-26 -5.5t-22.5 4.5t-9.5 15.5q0 17 11 37t30.5 36.5t46 27.5t57.5 11q24 0 48.5 -6.5t44 -21.5t32 -39t12.5 -58q0 -36 -23.5 -69t-56.5 -61t-69 -50.5l-60 -37.5l3 -13h133q20 0 32 7t19 17q2 3 10 3 t17 -1.5t15 -4.5t5 -8l-19 -58q-5 -8 -9 -9t-12 -1h-269q-5 0 -9 10t-6 22t-2.5 22.5t2.5 12.5q106 57 166.5 110.5t60.5 109.5z"/>
<glyph glyph-name="three.sups" unicode="³" d="M373 687q27 -8 47.5 -30t20.5 -60q0 -29 -12 -53t-33 -41t-49 -26t-60 -9q-24 0 -59.5 7t-64.5 26q-5 3 -5 11.5t3.5 16t8.5 13t9 2.5q44 -26 101 -26q44 0 67 18t23 60q0 38 -18 53.5t-47 15.5h-42q-5 0 -7 6.5t-2 15t2 15t7 6.5h44q22 0 33.5 18t11.5 63q0 26 -14.5 39 t-38.5 13q-58 0 -58 -30q0 -35 -29 -35q-28 0 -28 29q0 13 9 27t25.5 25.5t38.5 19t48 7.5q23 0 44 -7.5t37 -21t25.5 -31.5t9.5 -40q0 -36 -14.5 -56.5t-33.5 -30.5v-10z"/>
<glyph glyph-name="acute" unicode="´" d="M441 599q-32 -24 -68.5 -54.5t-81.5 -68.5q-5 -4 -11.5 -1.5t-11.5 8t-7.5 12.5t1.5 12q32 38 62.5 76t60.5 79q8 10 23 6t27.5 -15.5t16.5 -27t-11 -26.5z"/>
<glyph glyph-name="paragraph" unicode="¶" d="M504 642v-732h79q9 0 12.5 -8t3.5 -17t-4.5 -17t-11.5 -8h-143q-5 0 -7 1.5t-2 7.5q0 190 2.5 384t-2.5 389h-64q-14 -383 0 -766q0 -11 -11 -16t-25 -5t-25.5 5t-11.5 16v416h-26q-57 0 -99.5 19.5t-70.5 50t-41.5 69.5t-13.5 78q0 41 13.5 75t38 59t60 38t79.5 12h339 q10 0 15 -8t5 -17.5t-5 -17.5t-15 -8h-69zM294 642h-38q-30 0 -54 -12t-41.5 -32.5t-26.5 -47.5t-9 -57q0 -22 7 -49t23.5 -51t44 -40t69.5 -16h25v305z"/>
<glyph glyph-name="periodcentered" unicode="·" d="M231 265q0 33 23 55.5t60 22.5q35 0 57.5 -22t22.5 -56q0 -37 -23.5 -57t-57.5 -20q-37 0 -59.5 20t-22.5 57z"/>
<glyph glyph-name="cedilla" unicode="¸" d="M407 -124q0 -21 -10 -37t-26 -26.5t-37 -15.5t-42 -5q-55 0 -86 25q-4 3 -3 9.5t4.5 12.5t8 10t7.5 2q9 -6 26 -11t37 -5q19 0 37 8t18 31q0 19 -19 28.5t-46 9.5h-9.5t-9.5 -1q-5 -1 -7 -0.5t0 5.5l30 100h53q-1 -4 -4 -13.5t-6 -20t-6 -20t-4 -13.5q37 0 65.5 -19 t28.5 -54z"/>
<glyph glyph-name="one.sups" unicode="¹" d="M330 523h79q7 0 10 -8t3 -17t-3.5 -17t-9.5 -8h-222q-5 0 -7 8t-2 17t2 17t7 8h76v292l-64 -3q-8 0 -11.5 6t-3.5 14.5t3 15.5t9 8q26 5 52 13.5t42 20.5q5 4 13.5 2t16 -7.5t12.5 -13.5t4 -15q-3 -11 -4.5 -34t-1.5 -39v-260z"/>
<glyph glyph-name="ordmasculine" unicode="º" d="M103 554q0 49 15 88t42.5 66t66.5 41.5t86 14.5q37 0 70 -12t58.5 -35.5t40.5 -59t15 -82.5q0 -42 -13 -78.5t-38.5 -64t-63.5 -43t-87 -15.5q-41 0 -76 10.5t-60.5 33t-40.5 56t-15 80.5zM184 573q0 -76 29.5 -112t86.5 -36q60 0 89.5 34t29.5 94q0 36 -8.5 65.5 t-24 50.5t-37 33t-47.5 12q-51 0 -84.5 -35.5t-33.5 -105.5z"/>
<glyph glyph-name="guillemotright" unicode="»" d="M313 260q10 -14 8.5 -34t-10.5 -33l-148 -197q-7 -9 -17.5 -8.5t-19.5 7t-13.5 16.5t0.5 19l113 193v15l-108 191q-6 10 -1 19.5t14.5 15.5t20.5 5.5t19 -10.5zM506 260q10 -14 8.5 -34t-10.5 -33l-148 -197q-7 -9 -17.5 -8.5t-19.5 7t-13.5 16.5t0.5 19l113 193v15 l-108 191q-6 10 -1 19.5t14.5 15.5t20.5 5.5t19 -10.5z"/>
<glyph glyph-name="onequarter" unicode="¼" d="M52 168q-12 -6 -21 -3t-13 10t-1 16t14 15l519 270q16 9 27.5 7t15 -9t-0.5 -16.5t-17 -16.5zM157 423h79q7 0 10 -8t3 -17t-3.5 -17t-9.5 -8h-222q-5 0 -7 8t-2 17t2 17t7 8h76v292l-64 -3q-8 0 -11.5 6t-3.5 14.5t3 15.5t9 8q26 5 52 13.5t42 20.5q5 4 13.5 2t16 -7.5 t12.5 -13.5t4 -15q-3 -11 -4.5 -34t-1.5 -39v-260zM522 6h54q10 0 14.5 -7.5t4 -16.5t-4.5 -16.5t-10 -7.5h-58v-78q0 -9 -9.5 -13.5t-20.5 -4.5t-20.5 4.5t-9.5 13.5v77h-187q-8 0 -12 11t-5.5 24.5t-0.5 26.5t3 16q25 32 43 61.5t31.5 58t24 57.5t20.5 62q3 10 14.5 13.5 t23.5 1.5t20.5 -9t5.5 -19q-20 -72 -51.5 -126t-67.5 -107l2 -22h136v112q0 10 9.5 15t20.5 5t20.5 -5.5t9.5 -16.5v-110z"/>
<glyph glyph-name="onehalf" unicode="½" d="M52 168q-12 -6 -21 -3t-13 10t-1 16t14 15l519 270q16 9 27.5 7t15 -9t-0.5 -16.5t-17 -16.5zM157 423h79q7 0 10 -8t3 -17t-3.5 -17t-9.5 -8h-222q-5 0 -7 8t-2 17t2 17t7 8h76v292l-64 -3q-8 0 -11.5 6t-3.5 14.5t3 15.5t9 8q26 5 52 13.5t42 20.5q5 4 13.5 2t16 -7.5 t12.5 -13.5t4 -15q-3 -11 -4.5 -34t-1.5 -39v-260zM492 159q0 43 -24 61t-54 18q-32 0 -46.5 -15t-14.5 -38t-13 -28.5t-26 -5.5t-22.5 4.5t-9.5 15.5q0 17 11 37t30.5 36.5t46 27.5t57.5 11q24 0 48.5 -6.5t44 -21.5t32 -39t12.5 -58q0 -36 -23.5 -69t-56.5 -61t-69 -50.5 l-60 -37.5l3 -13h133q20 0 32 7t19 17q2 3 10 3t17 -1.5t15 -4.5t5 -8l-19 -58q-5 -8 -9 -9t-12 -1h-269q-5 0 -9 10t-6 22t-2.5 22.5t2.5 12.5q106 57 166.5 110.5t60.5 109.5z"/>
<glyph glyph-name="threequarters" unicode="¾" d="M52 168q-12 -6 -21 -3t-13 10t-1 16t14 15l519 270q16 9 27.5 7t15 -9t-0.5 -16.5t-17 -16.5zM200 587q27 -8 47.5 -30t20.5 -60q0 -29 -12 -53t-33 -41t-49 -26t-60 -9q-24 0 -59.5 7t-64.5 26q-5 3 -5 11.5t3.5 16t8.5 13t9 2.5q44 -26 101 -26q44 0 67 18t23 60 q0 38 -18 53.5t-47 15.5h-42q-5 0 -7 6.5t-2 15t2 15t7 6.5h44q22 0 33.5 18t11.5 63q0 26 -14.5 39t-38.5 13q-58 0 -58 -30q0 -35 -29 -35q-28 0 -28 29q0 13 9 27t25.5 25.5t38.5 19t48 7.5q23 0 44 -7.5t37 -21t25.5 -31.5t9.5 -40q0 -36 -14.5 -56.5t-33.5 -30.5v-10z M522 6h54q10 0 14.5 -7.5t4 -16.5t-4.5 -16.5t-10 -7.5h-58v-78q0 -9 -9.5 -13.5t-20.5 -4.5t-20.5 4.5t-9.5 13.5v77h-187q-8 0 -12 11t-5.5 24.5t-0.5 26.5t3 16q25 32 43 61.5t31.5 58t24 57.5t20.5 62q3 10 14.5 13.5t23.5 1.5t20.5 -9t5.5 -19q-20 -72 -51.5 -126 t-67.5 -107l2 -22h136v112q0 10 9.5 15t20.5 5t20.5 -5.5t9.5 -16.5v-110z"/>
<glyph glyph-name="questiondown" unicode="¿" d="M349 189q0 -26 -9.5 -53.5t-27.5 -50.5q-13 -16 -28.5 -36.5t-29.5 -44.5t-23.5 -49.5t-9.5 -50.5q0 -46 25 -73t66 -27t62 22.5t24 46.5q2 17 -3.5 29.5t-5.5 26.5q0 17 9.5 29t32.5 12q22 0 32 -12.5t10 -32.5q0 -35 -13 -65.5t-36 -53t-54.5 -35.5t-69.5 -13 q-36 0 -67 11.5t-53.5 32t-35.5 48.5t-13 61q0 24 10 48t25 45.5t33 40.5t35 34q26 24 40.5 53.5t14.5 55.5v41q0 10 9 15.5t20 5.5t21 -4.5t10 -15.5v-41zM388 392q0 -31 -21.5 -51t-57.5 -20q-14 0 -28 4.5t-25.5 13.5t-18.5 22t-7 31q0 29 23 51t58 22q36 0 56.5 -19 t20.5 -54z"/>
<glyph glyph-name="Agrave" unicode="À" d="M407 199h-237l-34 -99q-15 -49 47 -51l57 -2q8 0 12 -7.5t4 -16.5t-5.5 -16t-15.5 -7h-208q-10 0 -15 6.5t-5 14.5t4 16t12 10l10 3q7 2 14 6.5t14 14.5t15 27.5t18 46.5l182 500q3 8 10 13t14 5q8 0 14.5 -4t11.5 -16l224 -594h48q8 0 12 -7.5t4 -17t-4 -17t-11 -7.5 h-225q-8 0 -11.5 7.5t-3.5 17t4.5 17t12.5 7.5h85zM186 246h204l-94 265q-3 8 -9.5 9t-10.5 -10zM199 796q-12 10 -7.5 23.5t15.5 24.5t25 15.5t20 -4.5q23 -30 47 -63t49 -61q4 -5 1.5 -12t-8.5 -12.5t-13.5 -8.5t-11.5 1q-35 31 -63 54t-54 43z"/>
<glyph glyph-name="Aacute" unicode="Á" d="M407 199h-237l-34 -99q-15 -49 47 -51l57 -2q8 0 12 -7.5t4 -16.5t-5.5 -16t-15.5 -7h-208q-10 0 -15 6.5t-5 14.5t4 16t12 10l10 3q7 2 14 6.5t14 14.5t15 27.5t18 46.5l182 500q3 8 10 13t14 5q8 0 14.5 -4t11.5 -16l224 -594h48q8 0 12 -7.5t4 -17t-4 -17t-11 -7.5 h-225q-8 0 -11.5 7.5t-3.5 17t4.5 17t12.5 7.5h85zM186 246h204l-94 265q-3 8 -9.5 9t-10.5 -10zM401 796q-26 -20 -54 -43t-63 -54q-5 -4 -12 -1t-13 8.5t-8.5 12.5t1.5 12q25 28 49 61t47 63q6 9 20 4.5t25 -15.5t15.5 -24.5t-7.5 -23.5z"/>
<glyph glyph-name="Acircumflex" unicode="Â" d="M407 199h-237l-34 -99q-15 -49 47 -51l57 -2q8 0 12 -7.5t4 -16.5t-5.5 -16t-15.5 -7h-208q-10 0 -15 6.5t-5 14.5t4 16t12 10l10 3q7 2 14 6.5t14 14.5t15 27.5t18 46.5l182 500q3 8 10 13t14 5q8 0 14.5 -4t11.5 -16l224 -594h48q8 0 12 -7.5t4 -17t-4 -17t-11 -7.5 h-225q-8 0 -11.5 7.5t-3.5 17t4.5 17t12.5 7.5h85zM186 246h204l-94 265q-3 8 -9.5 9t-10.5 -10zM444 725q11 -14 9.5 -19t-12.5 -5h-29q-6 0 -9.5 2.5t-11.5 8.5l-91 70l-91 -70q-8 -8 -12.5 -9.5t-11.5 -1.5h-27q-21 0 -3 24l100 106q10 8 14.5 14t18.5 6h24q15 0 20 -6 t13 -14z"/>
<glyph glyph-name="Atilde" unicode="Ã" d="M407 199h-237l-34 -99q-15 -49 47 -51l57 -2q8 0 12 -7.5t4 -16.5t-5.5 -16t-15.5 -7h-208q-10 0 -15 6.5t-5 14.5t4 16t12 10l10 3q7 2 14 6.5t14 14.5t15 27.5t18 46.5l182 500q3 8 10 13t14 5q8 0 14.5 -4t11.5 -16l224 -594h48q8 0 12 -7.5t4 -17t-4 -17t-11 -7.5 h-225q-8 0 -11.5 7.5t-3.5 17t4.5 17t12.5 7.5h85zM186 246h204l-94 265q-3 8 -9.5 9t-10.5 -10zM465 803q-21 -41 -45.5 -62t-56.5 -21q-18 0 -35.5 8.5t-34 19t-31.5 19.5t-28 9q-16 0 -32.5 -14.5t-24.5 -27.5q-5 -7 -7.5 -7.5t-5.5 1.5l-26 19q-8 5 -2 12 q7 11 16.5 24.5t21.5 25t27.5 19t34.5 7.5q14 0 30.5 -9t33.5 -19.5t33 -19.5t29 -9q20 0 34.5 15t22.5 29q5 8 13 6l30 -12q8 -3 3 -13z"/>
<glyph glyph-name="Adieresis" unicode="Ä" d="M407 199h-237l-34 -99q-15 -49 47 -51l57 -2q8 0 12 -7.5t4 -16.5t-5.5 -16t-15.5 -7h-208q-10 0 -15 6.5t-5 14.5t4 16t12 10l10 3q7 2 14 6.5t14 14.5t15 27.5t18 46.5l182 500q3 8 10 13t14 5q8 0 14.5 -4t11.5 -16l224 -594h48q8 0 12 -7.5t4 -17t-4 -17t-11 -7.5 h-225q-8 0 -11.5 7.5t-3.5 17t4.5 17t12.5 7.5h85zM186 246h204l-94 265q-3 8 -9.5 9t-10.5 -10zM197 734q-17 0 -29 10t-12 28q0 17 6.5 31.5t17 24.5t24 15.5t26.5 5.5q17 0 28 -10t11 -30q0 -31 -19 -53t-53 -22zM377 734q-17 0 -29 10t-12 28q0 17 6.5 31.5t17 24.5 t24 15.5t26.5 5.5q17 0 28 -10t11 -30q0 -31 -19 -53t-53 -22z"/>
<glyph glyph-name="Aring" unicode="Å" d="M407 199h-237l-34 -99q-15 -49 47 -51l57 -2q8 0 12 -7.5t4 -16.5t-5.5 -16t-15.5 -7h-208q-10 0 -15 6.5t-5 14.5t4 16t12 10l10 3q7 2 14 6.5t14 14.5t15 27.5t18 46.5l182 500q3 8 10 13t14 5q8 0 14.5 -4t11.5 -16l224 -594h48q8 0 12 -7.5t4 -17t-4 -17t-11 -7.5 h-225q-8 0 -11.5 7.5t-3.5 17t4.5 17t12.5 7.5h85zM186 246h204l-94 265q-3 8 -9.5 9t-10.5 -10zM186 814q0 56 32.5 86.5t84.5 30.5q42 0 73.5 -26.5t31.5 -79.5q0 -48 -28.5 -81t-84.5 -33q-46 0 -77.5 24.5t-31.5 78.5zM232 819q0 -35 18 -51.5t47 -16.5q32 0 48.5 19.5 t16.5 53.5q0 33 -18 50t-47 17q-28 0 -46.5 -18.5t-18.5 -53.5z"/>
<glyph glyph-name="AE" unicode="Æ" d="M292 204h-114l-39 -104q-5 -12 -7 -21.5t2 -16t16 -10.5t35 -5q8 0 12 -7.5t4 -16.5t-5.5 -16t-15.5 -7h-152q-10 0 -14 8t-2.5 17t7 17t15.5 8q8 0 14.5 4.5t13.5 15.5t15.5 29t20.5 46l176 453h-43q-9 0 -13.5 8t-4.5 17t4.5 17t13.5 8h327q11 -1 18 -9t6 -22v-130 q0 -6 -8 -8.5t-17.5 -2t-17.5 3t-8 7.5v52q0 28 -19 41.5t-64 15.5l-78 2v-242l69 5q5 0 8 1t3 7v75q0 5 8 7.5t17.5 2.5t17.5 -2.5t8 -7.5v-214q0 -6 -8.5 -9.5t-18 -4t-17.5 2.5t-8 11v72q0 3 -1 5.5t-9 2.5l-69 5v-264l102 5q13 1 26 4t23.5 10t17 19.5t7.5 33.5l2 57 q1 7 8.5 10.5t16.5 3.5t16 -4t7 -10l-2 -156q0 -26 -28 -24h-309q-7 0 -11 7.5t-4.5 16.5t3.5 16.5t12 7.5h35v156zM194 246h98v246q0 10 -4 2z"/>
<glyph glyph-name="Ccedilla" unicode="Ç" d="M436 -124q0 -21 -10 -37t-26 -26.5t-37 -15.5t-42 -5q-55 0 -86 25q-4 3 -3 9.5t4.5 12.5t8 10t7.5 2q9 -6 26 -11t37 -5q19 0 37 8t18 31q0 19 -19 28.5t-46 9.5h-9.5t-9.5 -1q-5 -1 -7 -0.5t0 5.5l20 68q-52 4 -97 26.5t-78 61.5t-52 94t-19 126q0 92 22 161.5t60 116 t89.5 70t110.5 23.5q22 0 39.5 -3.5t31 -7t24.5 -7t22 -3.5q19 0 32.5 5t24.5 5q14 0 18.5 -8.5t3.5 -22.5l-12 -165q0 -5 -7.5 -7.5t-16.5 -2t-16.5 3t-7.5 6.5q0 46 -10.5 76.5t-29 48.5t-45 25t-57.5 7q-43 0 -78 -21.5t-59.5 -60t-38 -91t-13.5 -115.5q0 -62 11 -115 t34 -92t59.5 -61t87.5 -22q27 0 52 9t44.5 24t31 35t11.5 42v40q0 9 5.5 16t26.5 7q22 0 28.5 -7t6.5 -14v-80q0 -18 -5.5 -28.5t-14.5 -19.5q-29 -27 -72.5 -48.5t-93.5 -26.5q-4 -11 -6.5 -20.5t-3.5 -14.5q37 0 65.5 -19t28.5 -54z"/>
<glyph glyph-name="Egrave" unicode="È" d="M216 324v-272l195 7q45 1 63.5 16.5t20.5 47.5l2 67q1 7 9 10.5t17.5 3.5t17 -4t7.5 -10l-2 -166q0 -26 -28 -24l-333 4l-122 -4q-7 0 -11 7.5t-4.5 16.5t3.5 17t12 8h75v550h-81q-6 0 -9 7.5t-3 17t3 17t9 7.5l130 -3l317 3q11 -1 18 -9t6 -22l-8 -140q0 -6 -7.5 -8.5 t-16 -2t-15.5 3t-7 7.5v62q0 28 -19 41t-64 15l-175 4v-234l129 5q5 0 8 1t3 7v75q0 5 8 7.5t17.5 2.5t17.5 -2.5t8 -7.5v-214q0 -6 -8.5 -9.5t-18 -4t-17.5 2.5t-8 11v72q0 3 -1 5.5t-9 2.5zM207 796q-12 10 -7.5 23.5t15.5 24.5t25 15.5t20 -4.5q23 -30 47 -63t49 -61 q4 -5 1.5 -12t-8.5 -12.5t-13.5 -8.5t-11.5 1q-35 31 -63 54t-54 43z"/>
<glyph glyph-name="Eacute" unicode="É" d="M216 324v-272l195 7q45 1 63.5 16.5t20.5 47.5l2 67q1 7 9 10.5t17.5 3.5t17 -4t7.5 -10l-2 -166q0 -26 -28 -24l-333 4l-122 -4q-7 0 -11 7.5t-4.5 16.5t3.5 17t12 8h75v550h-81q-6 0 -9 7.5t-3 17t3 17t9 7.5l130 -3l317 3q11 -1 18 -9t6 -22l-8 -140q0 -6 -7.5 -8.5 t-16 -2t-15.5 3t-7 7.5v62q0 28 -19 41t-64 15l-175 4v-234l129 5q5 0 8 1t3 7v75q0 5 8 7.5t17.5 2.5t17.5 -2.5t8 -7.5v-214q0 -6 -8.5 -9.5t-18 -4t-17.5 2.5t-8 11v72q0 3 -1 5.5t-9 2.5zM409 796q-26 -20 -54 -43t-63 -54q-5 -4 -12 -1t-13 8.5t-8.5 12.5t1.5 12 q25 28 49 61t47 63q6 9 20 4.5t25 -15.5t15.5 -24.5t-7.5 -23.5z"/>
<glyph glyph-name="Ecircumflex" unicode="Ê" d="M216 324v-272l195 7q45 1 63.5 16.5t20.5 47.5l2 67q1 7 9 10.5t17.5 3.5t17 -4t7.5 -10l-2 -166q0 -26 -28 -24l-333 4l-122 -4q-7 0 -11 7.5t-4.5 16.5t3.5 17t12 8h75v550h-81q-6 0 -9 7.5t-3 17t3 17t9 7.5l130 -3l317 3q11 -1 18 -9t6 -22l-8 -140q0 -6 -7.5 -8.5 t-16 -2t-15.5 3t-7 7.5v62q0 28 -19 41t-64 15l-175 4v-234l129 5q5 0 8 1t3 7v75q0 5 8 7.5t17.5 2.5t17.5 -2.5t8 -7.5v-214q0 -6 -8.5 -9.5t-18 -4t-17.5 2.5t-8 11v72q0 3 -1 5.5t-9 2.5zM452 725q11 -14 9.5 -19t-12.5 -5h-29q-6 0 -9.5 2.5t-11.5 8.5l-91 70l-91 -70 q-8 -8 -12.5 -9.5t-11.5 -1.5h-27q-21 0 -3 24l100 106q10 8 14.5 14t18.5 6h24q15 0 20 -6t13 -14z"/>
<glyph glyph-name="Edieresis" unicode="Ë" d="M216 324v-272l195 7q45 1 63.5 16.5t20.5 47.5l2 67q1 7 9 10.5t17.5 3.5t17 -4t7.5 -10l-2 -166q0 -26 -28 -24l-333 4l-122 -4q-7 0 -11 7.5t-4.5 16.5t3.5 17t12 8h75v550h-81q-6 0 -9 7.5t-3 17t3 17t9 7.5l130 -3l317 3q11 -1 18 -9t6 -22l-8 -140q0 -6 -7.5 -8.5 t-16 -2t-15.5 3t-7 7.5v62q0 28 -19 41t-64 15l-175 4v-234l129 5q5 0 8 1t3 7v75q0 5 8 7.5t17.5 2.5t17.5 -2.5t8 -7.5v-214q0 -6 -8.5 -9.5t-18 -4t-17.5 2.5t-8 11v72q0 3 -1 5.5t-9 2.5zM205 734q-17 0 -29 10t-12 28q0 17 6.5 31.5t17 24.5t24 15.5t26.5 5.5 q17 0 28 -10t11 -30q0 -31 -19 -53t-53 -22zM385 734q-17 0 -29 10t-12 28q0 17 6.5 31.5t17 24.5t24 15.5t26.5 5.5q17 0 28 -10t11 -30q0 -31 -19 -53t-53 -22z"/>
<glyph glyph-name="Igrave" unicode="Ì" d="M322 599v-550h179q9 0 12.5 -7.5t3.5 -17t-4.5 -17t-11.5 -7.5h-396q-9 0 -13.5 7.5t-4.5 17t4.5 17t13.5 7.5h139v550h-155q-8 0 -12 7.5t-4.5 17t3.5 17t13 7.5h372q10 0 15 -7.5t5 -17t-5 -17t-15 -7.5h-139zM184 796q-12 10 -7.5 23.5t15.5 24.5t25 15.5t20 -4.5 q23 -30 47 -63t49 -61q4 -5 1.5 -12t-8.5 -12.5t-13.5 -8.5t-11.5 1q-35 31 -63 54t-54 43z"/>
<glyph glyph-name="Iacute" unicode="Í" d="M322 599v-550h179q9 0 12.5 -7.5t3.5 -17t-4.5 -17t-11.5 -7.5h-396q-9 0 -13.5 7.5t-4.5 17t4.5 17t13.5 7.5h139v550h-155q-8 0 -12 7.5t-4.5 17t3.5 17t13 7.5h372q10 0 15 -7.5t5 -17t-5 -17t-15 -7.5h-139zM386 796q-26 -20 -54 -43t-63 -54q-5 -4 -12 -1t-13 8.5 t-8.5 12.5t1.5 12q25 28 49 61t47 63q6 9 20 4.5t25 -15.5t15.5 -24.5t-7.5 -23.5z"/>
<glyph glyph-name="Icircumflex" unicode="Î" d="M322 599v-550h179q9 0 12.5 -7.5t3.5 -17t-4.5 -17t-11.5 -7.5h-396q-9 0 -13.5 7.5t-4.5 17t4.5 17t13.5 7.5h139v550h-155q-8 0 -12 7.5t-4.5 17t3.5 17t13 7.5h372q10 0 15 -7.5t5 -17t-5 -17t-15 -7.5h-139zM429 725q11 -14 9.5 -19t-12.5 -5h-29q-6 0 -9.5 2.5 t-11.5 8.5l-91 70l-91 -70q-8 -8 -12.5 -9.5t-11.5 -1.5h-27q-21 0 -3 24l100 106q10 8 14.5 14t18.5 6h24q15 0 20 -6t13 -14z"/>
<glyph glyph-name="Idieresis" unicode="Ï" d="M322 599v-550h179q9 0 12.5 -7.5t3.5 -17t-4.5 -17t-11.5 -7.5h-396q-9 0 -13.5 7.5t-4.5 17t4.5 17t13.5 7.5h139v550h-155q-8 0 -12 7.5t-4.5 17t3.5 17t13 7.5h372q10 0 15 -7.5t5 -17t-5 -17t-15 -7.5h-139zM182 734q-17 0 -29 10t-12 28q0 17 6.5 31.5t17 24.5 t24 15.5t26.5 5.5q17 0 28 -10t11 -30q0 -31 -19 -53t-53 -22zM362 734q-17 0 -29 10t-12 28q0 17 6.5 31.5t17 24.5t24 15.5t26.5 5.5q17 0 28 -10t11 -30q0 -31 -19 -53t-53 -22z"/>
<glyph glyph-name="Eth" unicode="Ð" d="M127 355v244h-86q-5 0 -8.5 7.5t-4 17t2.5 17t10 7.5h239q60 0 111 -20.5t88 -59.5q42 -45 64 -108.5t22 -139.5q0 -80 -24.5 -150t-78.5 -115q-32 -26 -75.5 -40.5t-98.5 -14.5h-242q-5 0 -8 7.5t-3 17t2.5 17t8.5 7.5h81v252h-72q-27 0 -27 29q0 25 22 25h77zM205 355 h119q22 0 22 -25q0 -29 -27 -29h-114v-252h79q40 0 75 13t61.5 45t41 86t14.5 136q0 56 -13.5 105t-40 86t-65 58t-89.5 21h-63v-244z"/>
<glyph glyph-name="Ntilde" unicode="Ñ" d="M512 7q0 -10 -7.5 -15t-17 -5.5t-19 3t-13.5 10.5l-296 506l-12 -6l17 -409q1 -23 12.5 -32.5t23.5 -10.5l52 -3q9 0 13.5 -7.5t4.5 -15.5t-4.5 -15t-13.5 -7h-201q-9 0 -13 8t-4 18t4 18t13 8h12q5 0 12 1t13.5 6t11 15.5t4.5 29.5l-6 495h-73q-8 0 -12 7.5t-4 17 t4.5 17t12.5 7.5h125q11 0 16 -10l284 -492l13 4l-12 378q-1 29 -15.5 48.5t-56.5 24.5l-35 3q-8 1 -11.5 7.5t-3.5 13.5t4 13t11 6l212 6q10 0 15 -8t5 -17.5t-5 -18t-15 -9.5l-24 -2q-26 0 -26 -36zM458 803q-21 -41 -45.5 -62t-56.5 -21q-18 0 -35.5 8.5t-34 19 t-31.5 19.5t-28 9q-16 0 -32.5 -14.5t-24.5 -27.5q-5 -7 -7.5 -7.5t-5.5 1.5l-26 19q-8 5 -2 12q7 11 16.5 24.5t21.5 25t27.5 19t34.5 7.5q14 0 30.5 -9t33.5 -19.5t33 -19.5t29 -9q20 0 34.5 15t22.5 29q5 8 13 6l30 -12q8 -3 3 -13z"/>
<glyph glyph-name="Ograve" unicode="Ò" d="M562 333q0 -84 -21.5 -149t-58.5 -110t-87 -68.5t-107 -23.5q-47 0 -92 18.5t-80 57t-56 96.5t-21 138t20 148t55 117.5t82.5 77.5t102.5 28q48 0 95 -18.5t84.5 -58.5t60.5 -102.5t23 -150.5zM470 323q0 139 -44.5 214.5t-129.5 75.5q-39 0 -70.5 -24t-53 -63.5 t-33 -91.5t-11.5 -109q0 -55 8.5 -107.5t29 -94t53.5 -66.5t81 -25q31 0 61.5 15t54.5 49.5t39 90t15 136.5zM199 796q-12 10 -7.5 23.5t15.5 24.5t25 15.5t20 -4.5q23 -30 47 -63t49 -61q4 -5 1.5 -12t-8.5 -12.5t-13.5 -8.5t-11.5 1q-35 31 -63 54t-54 43z"/>
<glyph glyph-name="Oacute" unicode="Ó" d="M562 333q0 -84 -21.5 -149t-58.5 -110t-87 -68.5t-107 -23.5q-47 0 -92 18.5t-80 57t-56 96.5t-21 138t20 148t55 117.5t82.5 77.5t102.5 28q48 0 95 -18.5t84.5 -58.5t60.5 -102.5t23 -150.5zM470 323q0 139 -44.5 214.5t-129.5 75.5q-39 0 -70.5 -24t-53 -63.5 t-33 -91.5t-11.5 -109q0 -55 8.5 -107.5t29 -94t53.5 -66.5t81 -25q31 0 61.5 15t54.5 49.5t39 90t15 136.5zM401 796q-26 -20 -54 -43t-63 -54q-5 -4 -12 -1t-13 8.5t-8.5 12.5t1.5 12q25 28 49 61t47 63q6 9 20 4.5t25 -15.5t15.5 -24.5t-7.5 -23.5z"/>
<glyph glyph-name="Ocircumflex" unicode="Ô" d="M562 333q0 -84 -21.5 -149t-58.5 -110t-87 -68.5t-107 -23.5q-47 0 -92 18.5t-80 57t-56 96.5t-21 138t20 148t55 117.5t82.5 77.5t102.5 28q48 0 95 -18.5t84.5 -58.5t60.5 -102.5t23 -150.5zM470 323q0 139 -44.5 214.5t-129.5 75.5q-39 0 -70.5 -24t-53 -63.5 t-33 -91.5t-11.5 -109q0 -55 8.5 -107.5t29 -94t53.5 -66.5t81 -25q31 0 61.5 15t54.5 49.5t39 90t15 136.5zM444 725q11 -14 9.5 -19t-12.5 -5h-29q-6 0 -9.5 2.5t-11.5 8.5l-91 70l-91 -70q-8 -8 -12.5 -9.5t-11.5 -1.5h-27q-21 0 -3 24l100 106q10 8 14.5 14t18.5 6h24 q15 0 20 -6t13 -14z"/>
<glyph glyph-name="Otilde" unicode="Õ" d="M562 333q0 -84 -21.5 -149t-58.5 -110t-87 -68.5t-107 -23.5q-47 0 -92 18.5t-80 57t-56 96.5t-21 138t20 148t55 117.5t82.5 77.5t102.5 28q48 0 95 -18.5t84.5 -58.5t60.5 -102.5t23 -150.5zM470 323q0 139 -44.5 214.5t-129.5 75.5q-39 0 -70.5 -24t-53 -63.5 t-33 -91.5t-11.5 -109q0 -55 8.5 -107.5t29 -94t53.5 -66.5t81 -25q31 0 61.5 15t54.5 49.5t39 90t15 136.5zM465 803q-21 -41 -45.5 -62t-56.5 -21q-18 0 -35.5 8.5t-34 19t-31.5 19.5t-28 9q-16 0 -32.5 -14.5t-24.5 -27.5q-5 -7 -7.5 -7.5t-5.5 1.5l-26 19q-8 5 -2 12 q7 11 16.5 24.5t21.5 25t27.5 19t34.5 7.5q14 0 30.5 -9t33.5 -19.5t33 -19.5t29 -9q20 0 34.5 15t22.5 29q5 8 13 6l30 -12q8 -3 3 -13z"/>
<glyph glyph-name="Odieresis" unicode="Ö" d="M562 333q0 -84 -21.5 -149t-58.5 -110t-87 -68.5t-107 -23.5q-47 0 -92 18.5t-80 57t-56 96.5t-21 138t20 148t55 117.5t82.5 77.5t102.5 28q48 0 95 -18.5t84.5 -58.5t60.5 -102.5t23 -150.5zM470 323q0 139 -44.5 214.5t-129.5 75.5q-39 0 -70.5 -24t-53 -63.5 t-33 -91.5t-11.5 -109q0 -55 8.5 -107.5t29 -94t53.5 -66.5t81 -25q31 0 61.5 15t54.5 49.5t39 90t15 136.5zM197 734q-17 0 -29 10t-12 28q0 17 6.5 31.5t17 24.5t24 15.5t26.5 5.5q17 0 28 -10t11 -30q0 -31 -19 -53t-53 -22zM377 734q-17 0 -29 10t-12 28q0 17 6.5 31.5 t17 24.5t24 15.5t26.5 5.5q17 0 28 -10t11 -30q0 -31 -19 -53t-53 -22z"/>
<glyph glyph-name="multiply" unicode="×" d="M305 321l170 178q8 9 20.5 3.5t23 -17t15 -25t-3.5 -21.5l-176 -171l175 -172q9 -9 4.5 -21.5t-14.5 -23t-22.5 -15t-20.5 4.5l-174 177l-168 -175q-9 -9 -22 -5.5t-24 14t-15.5 24t4.5 22.5l175 172l-176 173q-9 9 -4.5 21.5t15 22.5t23.5 14.5t21 -3.5z"/>
<glyph glyph-name="Oslash" unicode="Ø" d="M562 333q0 -84 -21.5 -149t-58.5 -110t-87 -68.5t-107 -23.5q-59 0 -110 27l-33 -63q-8 -14 -18.5 -20t-21.5 -6q-23 0 -28 15t5 33l43 80q-39 38 -62.5 98.5t-23.5 145.5q0 80 20 148t55 117.5t82.5 77.5t102.5 28q35 0 69 -10t66 -30l32 62q6 12 16.5 17.5t21.5 5.5 q21 0 27.5 -15t-3.5 -32l-45 -81q35 -40 57 -101t22 -146zM165 123q60 110 119.5 220.5t119.5 222.5q-42 47 -108 47q-39 0 -70.5 -24t-53 -63.5t-33 -91.5t-11.5 -109q0 -56 8.5 -108t28.5 -94zM470 323q0 109 -29 181q-60 -111 -118.5 -220.5t-115.5 -217.5q37 -34 93 -34 q31 0 61.5 15t54.5 49.5t39 90t15 136.5z"/>
<glyph glyph-name="Ugrave" unicode="Ù" d="M537 596q-11 -1 -17 -13.5t-9 -30.5t-4 -39.5t-1 -41.5l-1 -304q0 -51 -18.5 -86t-47.5 -57t-65 -32t-70 -10q-44 0 -81 11.5t-63.5 31.5t-41.5 48.5t-15 63.5v462h-68q-7 0 -12 7.5t-5.5 17t3 17t14.5 7.5h206q11 0 17 -7.5t6 -17t-5.5 -17t-16.5 -7.5h-61v-423 q0 -63 34 -97t95 -34q24 0 49.5 7t46.5 23.5t35 43.5t14 68v286q0 25 -1 46.5t-5 37.5t-10.5 26t-16.5 11l-50 7q-8 0 -12.5 7.5t-4.5 16.5t4 16t13 7h191q10 0 14.5 -7.5t4.5 -16.5t-5 -17t-14 -8zM210 796q-12 10 -7.5 23.5t15.5 24.5t25 15.5t20 -4.5q23 -30 47 -63 t49 -61q4 -5 1.5 -12t-8.5 -12.5t-13.5 -8.5t-11.5 1q-35 31 -63 54t-54 43z"/>
<glyph glyph-name="Uacute" unicode="Ú" d="M537 596q-11 -1 -17 -13.5t-9 -30.5t-4 -39.5t-1 -41.5l-1 -304q0 -51 -18.5 -86t-47.5 -57t-65 -32t-70 -10q-44 0 -81 11.5t-63.5 31.5t-41.5 48.5t-15 63.5v462h-68q-7 0 -12 7.5t-5.5 17t3 17t14.5 7.5h206q11 0 17 -7.5t6 -17t-5.5 -17t-16.5 -7.5h-61v-423 q0 -63 34 -97t95 -34q24 0 49.5 7t46.5 23.5t35 43.5t14 68v286q0 25 -1 46.5t-5 37.5t-10.5 26t-16.5 11l-50 7q-8 0 -12.5 7.5t-4.5 16.5t4 16t13 7h191q10 0 14.5 -7.5t4.5 -16.5t-5 -17t-14 -8zM412 796q-26 -20 -54 -43t-63 -54q-5 -4 -12 -1t-13 8.5t-8.5 12.5t1.5 12 q25 28 49 61t47 63q6 9 20 4.5t25 -15.5t15.5 -24.5t-7.5 -23.5z"/>
<glyph glyph-name="Ucircumflex" unicode="Û" d="M537 596q-11 -1 -17 -13.5t-9 -30.5t-4 -39.5t-1 -41.5l-1 -304q0 -51 -18.5 -86t-47.5 -57t-65 -32t-70 -10q-44 0 -81 11.5t-63.5 31.5t-41.5 48.5t-15 63.5v462h-68q-7 0 -12 7.5t-5.5 17t3 17t14.5 7.5h206q11 0 17 -7.5t6 -17t-5.5 -17t-16.5 -7.5h-61v-423 q0 -63 34 -97t95 -34q24 0 49.5 7t46.5 23.5t35 43.5t14 68v286q0 25 -1 46.5t-5 37.5t-10.5 26t-16.5 11l-50 7q-8 0 -12.5 7.5t-4.5 16.5t4 16t13 7h191q10 0 14.5 -7.5t4.5 -16.5t-5 -17t-14 -8zM455 725q11 -14 9.5 -19t-12.5 -5h-29q-6 0 -9.5 2.5t-11.5 8.5l-91 70 l-91 -70q-8 -8 -12.5 -9.5t-11.5 -1.5h-27q-21 0 -3 24l100 106q10 8 14.5 14t18.5 6h24q15 0 20 -6t13 -14z"/>
<glyph glyph-name="Udieresis" unicode="Ü" d="M537 596q-11 -1 -17 -13.5t-9 -30.5t-4 -39.5t-1 -41.5l-1 -304q0 -51 -18.5 -86t-47.5 -57t-65 -32t-70 -10q-44 0 -81 11.5t-63.5 31.5t-41.5 48.5t-15 63.5v462h-68q-7 0 -12 7.5t-5.5 17t3 17t14.5 7.5h206q11 0 17 -7.5t6 -17t-5.5 -17t-16.5 -7.5h-61v-423 q0 -63 34 -97t95 -34q24 0 49.5 7t46.5 23.5t35 43.5t14 68v286q0 25 -1 46.5t-5 37.5t-10.5 26t-16.5 11l-50 7q-8 0 -12.5 7.5t-4.5 16.5t4 16t13 7h191q10 0 14.5 -7.5t4.5 -16.5t-5 -17t-14 -8zM208 734q-17 0 -29 10t-12 28q0 17 6.5 31.5t17 24.5t24 15.5t26.5 5.5 q17 0 28 -10t11 -30q0 -31 -19 -53t-53 -22zM388 734q-17 0 -29 10t-12 28q0 17 6.5 31.5t17 24.5t24 15.5t26.5 5.5q17 0 28 -10t11 -30q0 -31 -19 -53t-53 -22z"/>
<glyph glyph-name="Yacute" unicode="Ý" d="M324 348q30 51 56 101t50 109q7 17 2.5 29t-27.5 12h-40q-8 0 -11.5 7.5t-3.5 17t3.5 17t10.5 7.5h191q8 0 12 -7.5t3.5 -17t-5 -17t-12.5 -7.5h-37q-41 -82 -83.5 -158t-87.5 -150v-242h109q9 0 12.5 -7.5t3.5 -17t-4.5 -17t-11.5 -7.5h-276q-9 0 -13.5 7.5t-4.5 17 t4.5 17t13.5 7.5h89v222q-56 80 -106 162t-96 166h-42q-7 0 -10.5 7.5t-3.5 17t3 17t11 7.5h207q8 0 12 -7.5t4 -17t-4 -17t-11 -7.5h-78q35 -67 72.5 -129.5t82.5 -121.5h16zM404 796q-26 -20 -54 -43t-63 -54q-5 -4 -12 -1t-13 8.5t-8.5 12.5t1.5 12q25 28 49 61t47 63 q6 9 20 4.5t25 -15.5t15.5 -24.5t-7.5 -23.5z"/>
<glyph glyph-name="Thorn" unicode="Þ" d="M232 599v-81h107q44 1 81 -9t63.5 -31t41.5 -52t15 -72q0 -39 -15 -75t-45 -63.5t-74 -43.5t-101 -15h-73v-108h91q9 0 12.5 -7.5t3.5 -17t-4.5 -17t-11.5 -7.5h-244q-9 0 -13.5 7.5t-4.5 17t4.5 17t13.5 7.5h75v550h-80q-8 0 -12 7.5t-4.5 17t3.5 17t13 7.5h255 q8 0 12.5 -7.5t4.5 -17t-4 -17t-13 -7.5h-97zM232 469v-267h72q42 0 71 13t47.5 33t27 44t8.5 46q0 30 -11 54t-29.5 41t-44.5 26.5t-56 9.5h-85z"/>
<glyph glyph-name="germandbls" unicode="ß" d="M95 446q0 17 1 35t3 35q5 37 15.5 70.5t30 58.5t49.5 40t72 15q89 0 137.5 -41.5t48.5 -105.5q0 -29 -9.5 -50.5t-24 -39t-31.5 -32.5t-31.5 -30t-24 -31.5t-9.5 -37.5q0 -15 5.5 -26t18.5 -20t34.5 -16t54.5 -14q69 -15 104.5 -47t35.5 -94q0 -21 -10 -43.5t-29 -41 t-46.5 -30t-61.5 -11.5q-25 0 -42 1.5t-28.5 3t-19.5 3.5t-15 3q-11 2 -19 0.5t-18 -1.5q-23 0 -24 28l-5 86q0 9 7.5 13.5t16.5 5t17.5 -3.5t9.5 -11q6 -44 33 -64.5t84 -20.5q44 0 63.5 21t19.5 48q0 33 -21.5 55.5t-75.5 35.5q-74 17 -114 48t-40 88q0 36 18 58 t39.5 42.5t39.5 45.5t18 68q0 22 -6 42t-19 35t-33.5 24t-49.5 9q-53 0 -74 -37.5t-21 -112.5q0 -70 4 -139t7 -151q2 -53 2.5 -102.5t0.5 -109.5h-141q-5 0 -7.5 7t-2.5 15t2.5 15.5t7.5 7.5l64 10q0 66 -1.5 117.5t-3 92t-2.5 71.5t-1 54h-63q-4 0 -5.5 8.5t-1 19t2.5 19 t5 8.5z"/>
<glyph glyph-name="agrave" unicode="à" d="M397 227q-131 -5 -194.5 -28t-63.5 -74q0 -37 25.5 -59.5t69.5 -22.5q41 0 85.5 13.5t73.5 43.5zM398 45l-7 2q-35 -23 -82 -38.5t-95 -15.5q-79 0 -119 34.5t-40 84.5q0 41 23 69.5t67.5 47t108.5 27.5t145 12l2 47q1 28 -6 48t-19.5 33t-29 19t-34.5 6q-32 0 -58 -10.5 t-40 -20.5q-5 -3 -5.5 -8t-0.5 -12q0 -30 -12.5 -42.5t-34.5 -12.5q-17 0 -32.5 9t-13.5 44q1 13 4.5 24t19.5 19q23 12 52.5 23t60.5 19t60 13t51 5q60 0 87.5 -39.5t27.5 -101.5l-9 -268l78 21q6 2 12.5 -4t9.5 -15t2 -17t-9 -11q-9 -3 -28 -10t-40 -14t-39.5 -13.5 t-26.5 -7.5q-15 -3 -18 8zM172 649q-15 11 -11 26.5t16.5 27t27.5 15.5t23 -6q30 -41 60.5 -79t62.5 -76q4 -5 1.5 -12t-7.5 -12.5t-12 -8t-11 1.5q-45 38 -81.5 68.5t-68.5 54.5z"/>
<glyph glyph-name="aacute" unicode="á" d="M397 227q-131 -5 -194.5 -28t-63.5 -74q0 -37 25.5 -59.5t69.5 -22.5q41 0 85.5 13.5t73.5 43.5zM398 45l-7 2q-35 -23 -82 -38.5t-95 -15.5q-79 0 -119 34.5t-40 84.5q0 41 23 69.5t67.5 47t108.5 27.5t145 12l2 47q1 28 -6 48t-19.5 33t-29 19t-34.5 6q-32 0 -58 -10.5 t-40 -20.5q-5 -3 -5.5 -8t-0.5 -12q0 -30 -12.5 -42.5t-34.5 -12.5q-17 0 -32.5 9t-13.5 44q1 13 4.5 24t19.5 19q23 12 52.5 23t60.5 19t60 13t51 5q60 0 87.5 -39.5t27.5 -101.5l-9 -268l78 21q6 2 12.5 -4t9.5 -15t2 -17t-9 -11q-9 -3 -28 -10t-40 -14t-39.5 -13.5 t-26.5 -7.5q-15 -3 -18 8zM454 649q-32 -24 -68.5 -54.5t-81.5 -68.5q-5 -4 -11.5 -1.5t-11.5 8t-7.5 12.5t1.5 12q32 38 62.5 76t60.5 79q8 10 23 6t27.5 -15.5t16.5 -27t-11 -26.5z"/>
<glyph glyph-name="acircumflex" unicode="â" d="M397 227q-131 -5 -194.5 -28t-63.5 -74q0 -37 25.5 -59.5t69.5 -22.5q41 0 85.5 13.5t73.5 43.5zM398 45l-7 2q-35 -23 -82 -38.5t-95 -15.5q-79 0 -119 34.5t-40 84.5q0 41 23 69.5t67.5 47t108.5 27.5t145 12l2 47q1 28 -6 48t-19.5 33t-29 19t-34.5 6q-32 0 -58 -10.5 t-40 -20.5q-5 -3 -5.5 -8t-0.5 -12q0 -30 -12.5 -42.5t-34.5 -12.5q-17 0 -32.5 9t-13.5 44q1 13 4.5 24t19.5 19q23 12 52.5 23t60.5 19t60 13t51 5q60 0 87.5 -39.5t27.5 -101.5l-9 -268l78 21q6 2 12.5 -4t9.5 -15t2 -17t-9 -11q-9 -3 -28 -10t-40 -14t-39.5 -13.5 t-26.5 -7.5q-15 -3 -18 8zM457 551q18 -24 -3 -24h-29q-6 0 -10.5 2t-10.5 9l-91 95l-91 -95q-8 -8 -12.5 -9.5t-11.5 -1.5h-27q-21 0 -3 24l100 131q7 9 11.5 14.5t16.5 5.5h34q13 0 17 -6t11 -14z"/>
<glyph glyph-name="atilde" unicode="ã" d="M397 227q-131 -5 -194.5 -28t-63.5 -74q0 -37 25.5 -59.5t69.5 -22.5q41 0 85.5 13.5t73.5 43.5zM398 45l-7 2q-35 -23 -82 -38.5t-95 -15.5q-79 0 -119 34.5t-40 84.5q0 41 23 69.5t67.5 47t108.5 27.5t145 12l2 47q1 28 -6 48t-19.5 33t-29 19t-34.5 6q-32 0 -58 -10.5 t-40 -20.5q-5 -3 -5.5 -8t-0.5 -12q0 -30 -12.5 -42.5t-34.5 -12.5q-17 0 -32.5 9t-13.5 44q1 13 4.5 24t19.5 19q23 12 52.5 23t60.5 19t60 13t51 5q60 0 87.5 -39.5t27.5 -101.5l-9 -268l78 21q6 2 12.5 -4t9.5 -15t2 -17t-9 -11q-9 -3 -28 -10t-40 -14t-39.5 -13.5 t-26.5 -7.5q-15 -3 -18 8zM478 609q-21 -41 -45.5 -62t-56.5 -21q-18 0 -35.5 8.5t-34 19t-31.5 19.5t-28 9q-16 0 -32.5 -14.5t-24.5 -27.5q-5 -7 -7.5 -7.5t-5.5 1.5l-26 19q-8 5 -2 12q7 11 16.5 24.5t21.5 25t27.5 19t34.5 7.5q14 0 30.5 -9t33.5 -19.5t33 -19.5t29 -9 q20 0 34.5 15t22.5 29q5 8 13 6l30 -12q8 -3 3 -13z"/>
<glyph glyph-name="adieresis" unicode="ä" d="M397 227q-131 -5 -194.5 -28t-63.5 -74q0 -37 25.5 -59.5t69.5 -22.5q41 0 85.5 13.5t73.5 43.5zM398 45l-7 2q-35 -23 -82 -38.5t-95 -15.5q-79 0 -119 34.5t-40 84.5q0 41 23 69.5t67.5 47t108.5 27.5t145 12l2 47q1 28 -6 48t-19.5 33t-29 19t-34.5 6q-32 0 -58 -10.5 t-40 -20.5q-5 -3 -5.5 -8t-0.5 -12q0 -30 -12.5 -42.5t-34.5 -12.5q-17 0 -32.5 9t-13.5 44q1 13 4.5 24t19.5 19q23 12 52.5 23t60.5 19t60 13t51 5q60 0 87.5 -39.5t27.5 -101.5l-9 -268l78 21q6 2 12.5 -4t9.5 -15t2 -17t-9 -11q-9 -3 -28 -10t-40 -14t-39.5 -13.5 t-26.5 -7.5q-15 -3 -18 8zM210 540q-17 0 -29 10t-12 28q0 17 6.5 31.5t17 24.5t24 15.5t26.5 5.5q17 0 28 -10t11 -30q0 -31 -19 -53t-53 -22zM390 540q-17 0 -29 10t-12 28q0 17 6.5 31.5t17 24.5t24 15.5t26.5 5.5q17 0 28 -10t11 -30q0 -31 -19 -53t-53 -22z"/>
<glyph glyph-name="aring" unicode="å" d="M397 227q-131 -5 -194.5 -28t-63.5 -74q0 -37 25.5 -59.5t69.5 -22.5q41 0 85.5 13.5t73.5 43.5zM398 45l-7 2q-35 -23 -82 -38.5t-95 -15.5q-79 0 -119 34.5t-40 84.5q0 41 23 69.5t67.5 47t108.5 27.5t145 12l2 47q1 28 -6 48t-19.5 33t-29 19t-34.5 6q-32 0 -58 -10.5 t-40 -20.5q-5 -3 -5.5 -8t-0.5 -12q0 -30 -12.5 -42.5t-34.5 -12.5q-17 0 -32.5 9t-13.5 44q1 13 4.5 24t19.5 19q23 12 52.5 23t60.5 19t60 13t51 5q60 0 87.5 -39.5t27.5 -101.5l-9 -268l78 21q6 2 12.5 -4t9.5 -15t2 -17t-9 -11q-9 -3 -28 -10t-40 -14t-39.5 -13.5 t-26.5 -7.5q-15 -3 -18 8zM199 620q0 56 32.5 86.5t84.5 30.5q42 0 73.5 -26.5t31.5 -79.5q0 -48 -28.5 -81t-84.5 -33q-46 0 -77.5 24.5t-31.5 78.5zM245 625q0 -35 18 -51.5t47 -16.5q32 0 48.5 19.5t16.5 53.5q0 33 -18 50t-47 17q-28 0 -46.5 -18.5t-18.5 -53.5z"/>
<glyph glyph-name="ae" unicode="æ" d="M323 213q0 -44 8 -74.5t22 -49.5t33.5 -27t42.5 -8q18 0 37.5 4t38.5 10t36.5 13.5t31.5 15.5q5 3 9.5 -1.5t7.5 -11.5t3.5 -14t-3.5 -10q-35 -28 -82.5 -47.5t-95.5 -19.5q-39 0 -76.5 17t-57.5 46q-29 -31 -64.5 -47t-72.5 -16q-33 0 -57 9.5t-39.5 25.5t-23 37.5 t-7.5 46.5q0 36 16 62t45.5 42.5t72 25.5t95.5 12q4 39 4.5 71.5t-4 55.5t-14.5 36t-28 13q-24 0 -42 -11t-29 -20q-5 -4 -5.5 -13t-0.5 -16q0 -26 -13.5 -39.5t-30.5 -13.5q-12 0 -23 12t-10 38q0 13 3 24t14 19q17 12 37 23t39.5 19.5t37 13.5t30.5 5q39 0 63 -23t32 -52 q26 33 56.5 51t68.5 18q34 0 62.5 -15t49.5 -43t32.5 -68.5t11.5 -90.5q0 -13 -3.5 -19t-14.5 -7zM501 263q-2 29 -5 57t-11.5 49.5t-23.5 35t-40 13.5q-21 0 -39 -12t-30.5 -33.5t-20 -51.5t-8.5 -65zM257 98q-7 21 -12 49.5t-5 63.5q-43 -3 -71.5 -9.5t-46 -19 t-24.5 -30.5t-7 -43q0 -36 20 -50t43 -14q30 0 53.5 10.5t49.5 42.5z"/>
<glyph glyph-name="ccedilla" unicode="ç" d="M415 -124q0 -21 -10 -37t-26 -26.5t-37 -15.5t-42 -5q-55 0 -86 25q-4 3 -3 9.5t4.5 12.5t8 10t7.5 2q9 -6 26 -11t37 -5q19 0 37 8t18 31q0 19 -19 28.5t-46 9.5h-9.5t-9.5 -1q-5 -1 -7 -0.5t0 5.5l23 78q-50 3 -90 21t-67.5 46.5t-42.5 66t-15 80.5q0 65 20 113.5 t53 80.5t75.5 47.5t88.5 15.5q28 0 53 -5.5t45 -13.5t35 -16.5t24 -15.5q19 -14 19 -43v-44q0 -24 -16.5 -33.5t-32.5 -9.5q-22 0 -30 11t-13 45t-23 54t-62 20q-34 0 -62 -9t-48.5 -30.5t-32 -56t-11.5 -85.5q0 -46 13.5 -79t36.5 -54.5t53 -31.5t63 -10q64 0 108.5 18 t71.5 35q8 5 16.5 -1t14.5 -16.5t6.5 -21.5t-7.5 -17q-42 -27 -92 -41.5t-97 -18.5l-14 -46q37 0 65.5 -19t28.5 -54z"/>
<glyph glyph-name="egrave" unicode="è" d="M151 220q1 -85 36.5 -125.5t101.5 -40.5q31 0 63.5 4t63 10t57 13.5t46.5 15.5q6 3 12.5 -1.5t10.5 -11.5t4.5 -14t-4.5 -10q-26 -13 -57.5 -25t-65 -21.5t-68 -15t-67.5 -5.5q-52 0 -92.5 16t-68 44.5t-41.5 67t-14 83.5q0 61 21 109.5t54.5 82t76 51.5t85.5 18 q47 0 86.5 -15t68 -43t44 -68.5t15.5 -90.5q0 -13 -5.5 -20.5t-20.5 -8.5zM434 266q-2 28 -9.5 55.5t-23 49t-40 34.5t-60.5 13q-32 0 -58.5 -12t-47 -33t-32.5 -48.5t-13 -58.5h284zM166 649q-15 11 -11 26.5t16.5 27t27.5 15.5t23 -6q30 -41 60.5 -79t62.5 -76 q4 -5 1.5 -12t-7.5 -12.5t-12 -8t-11 1.5q-45 38 -81.5 68.5t-68.5 54.5z"/>
<glyph glyph-name="eacute" unicode="é" d="M151 220q1 -85 36.5 -125.5t101.5 -40.5q31 0 63.5 4t63 10t57 13.5t46.5 15.5q6 3 12.5 -1.5t10.5 -11.5t4.5 -14t-4.5 -10q-26 -13 -57.5 -25t-65 -21.5t-68 -15t-67.5 -5.5q-52 0 -92.5 16t-68 44.5t-41.5 67t-14 83.5q0 61 21 109.5t54.5 82t76 51.5t85.5 18 q47 0 86.5 -15t68 -43t44 -68.5t15.5 -90.5q0 -13 -5.5 -20.5t-20.5 -8.5zM434 266q-2 28 -9.5 55.5t-23 49t-40 34.5t-60.5 13q-32 0 -58.5 -12t-47 -33t-32.5 -48.5t-13 -58.5h284zM448 649q-32 -24 -68.5 -54.5t-81.5 -68.5q-5 -4 -11.5 -1.5t-11.5 8t-7.5 12.5t1.5 12 q32 38 62.5 76t60.5 79q8 10 23 6t27.5 -15.5t16.5 -27t-11 -26.5z"/>
<glyph glyph-name="ecircumflex" unicode="ê" d="M151 220q1 -85 36.5 -125.5t101.5 -40.5q31 0 63.5 4t63 10t57 13.5t46.5 15.5q6 3 12.5 -1.5t10.5 -11.5t4.5 -14t-4.5 -10q-26 -13 -57.5 -25t-65 -21.5t-68 -15t-67.5 -5.5q-52 0 -92.5 16t-68 44.5t-41.5 67t-14 83.5q0 61 21 109.5t54.5 82t76 51.5t85.5 18 q47 0 86.5 -15t68 -43t44 -68.5t15.5 -90.5q0 -13 -5.5 -20.5t-20.5 -8.5zM434 266q-2 28 -9.5 55.5t-23 49t-40 34.5t-60.5 13q-32 0 -58.5 -12t-47 -33t-32.5 -48.5t-13 -58.5h284zM451 551q18 -24 -3 -24h-29q-6 0 -10.5 2t-10.5 9l-91 95l-91 -95q-8 -8 -12.5 -9.5 t-11.5 -1.5h-27q-21 0 -3 24l100 131q7 9 11.5 14.5t16.5 5.5h34q13 0 17 -6t11 -14z"/>
<glyph glyph-name="edieresis" unicode="ë" d="M151 220q1 -85 36.5 -125.5t101.5 -40.5q31 0 63.5 4t63 10t57 13.5t46.5 15.5q6 3 12.5 -1.5t10.5 -11.5t4.5 -14t-4.5 -10q-26 -13 -57.5 -25t-65 -21.5t-68 -15t-67.5 -5.5q-52 0 -92.5 16t-68 44.5t-41.5 67t-14 83.5q0 61 21 109.5t54.5 82t76 51.5t85.5 18 q47 0 86.5 -15t68 -43t44 -68.5t15.5 -90.5q0 -13 -5.5 -20.5t-20.5 -8.5zM434 266q-2 28 -9.5 55.5t-23 49t-40 34.5t-60.5 13q-32 0 -58.5 -12t-47 -33t-32.5 -48.5t-13 -58.5h284zM204 540q-17 0 -29 10t-12 28q0 17 6.5 31.5t17 24.5t24 15.5t26.5 5.5q17 0 28 -10 t11 -30q0 -31 -19 -53t-53 -22zM384 540q-17 0 -29 10t-12 28q0 17 6.5 31.5t17 24.5t24 15.5t26.5 5.5q17 0 28 -10t11 -30q0 -31 -19 -53t-53 -22z"/>
<glyph glyph-name="igrave" unicode="ì" d="M278 394l-162 3q-7 0 -10 6t-1.5 13.5t6.5 14t13 6.5q41 1 95.5 6.5t98.5 12.5q13 2 21 1t12.5 -5t5.5 -9t1 -10v-377l171 -13q9 -1 13 -7.5t3.5 -14.5t-5 -14.5t-11.5 -6.5h-414q-7 0 -10.5 6t-3.5 13.5t3.5 13.5t10.5 7l163 14v340zM182 649q-15 11 -11 26.5t16.5 27 t27.5 15.5t23 -6q30 -41 60.5 -79t62.5 -76q4 -5 1.5 -12t-7.5 -12.5t-12 -8t-11 1.5q-45 38 -81.5 68.5t-68.5 54.5z"/>
<glyph glyph-name="iacute" unicode="í" d="M278 394l-162 3q-7 0 -10 6t-1.5 13.5t6.5 14t13 6.5q41 1 95.5 6.5t98.5 12.5q13 2 21 1t12.5 -5t5.5 -9t1 -10v-377l171 -13q9 -1 13 -7.5t3.5 -14.5t-5 -14.5t-11.5 -6.5h-414q-7 0 -10.5 6t-3.5 13.5t3.5 13.5t10.5 7l163 14v340zM464 649q-32 -24 -68.5 -54.5 t-81.5 -68.5q-5 -4 -11.5 -1.5t-11.5 8t-7.5 12.5t1.5 12q32 38 62.5 76t60.5 79q8 10 23 6t27.5 -15.5t16.5 -27t-11 -26.5z"/>
<glyph glyph-name="icircumflex" unicode="î" d="M278 394l-162 3q-7 0 -10 6t-1.5 13.5t6.5 14t13 6.5q41 1 95.5 6.5t98.5 12.5q13 2 21 1t12.5 -5t5.5 -9t1 -10v-377l171 -13q9 -1 13 -7.5t3.5 -14.5t-5 -14.5t-11.5 -6.5h-414q-7 0 -10.5 6t-3.5 13.5t3.5 13.5t10.5 7l163 14v340zM467 551q18 -24 -3 -24h-29 q-6 0 -10.5 2t-10.5 9l-91 95l-91 -95q-8 -8 -12.5 -9.5t-11.5 -1.5h-27q-21 0 -3 24l100 131q7 9 11.5 14.5t16.5 5.5h34q13 0 17 -6t11 -14z"/>
<glyph glyph-name="idieresis" unicode="ï" d="M278 394l-162 3q-7 0 -10 6t-1.5 13.5t6.5 14t13 6.5q41 1 95.5 6.5t98.5 12.5q13 2 21 1t12.5 -5t5.5 -9t1 -10v-377l171 -13q9 -1 13 -7.5t3.5 -14.5t-5 -14.5t-11.5 -6.5h-414q-7 0 -10.5 6t-3.5 13.5t3.5 13.5t10.5 7l163 14v340zM220 540q-17 0 -29 10t-12 28 q0 17 6.5 31.5t17 24.5t24 15.5t26.5 5.5q17 0 28 -10t11 -30q0 -31 -19 -53t-53 -22zM400 540q-17 0 -29 10t-12 28q0 17 6.5 31.5t17 24.5t24 15.5t26.5 5.5q17 0 28 -10t11 -30q0 -31 -19 -53t-53 -22z"/>
<glyph glyph-name="eth" unicode="ð" d="M279 616q-20 13 -40 22.5t-39 17.5q-7 3 -7.5 10.5t2 15t8 13t10.5 4.5q26 -8 53.5 -20.5t55.5 -29.5l68 53q7 6 15 3t13.5 -10t6 -16t-5.5 -15l-55 -43q34 -26 65 -59t54.5 -74t37 -90t13.5 -106q0 -88 -22 -145.5t-56.5 -91.5t-76 -48t-79.5 -14q-48 0 -91 14.5 t-74.5 43t-50 71t-18.5 99.5q0 56 19 101t51 77t73.5 49t86.5 17t73.5 -12.5t59.5 -44.5l16 8q-12 50 -46.5 93.5t-78.5 77.5l-85 -65q-7 -6 -16 -4t-15.5 8t-8.5 14t5 14zM449 231q0 50 -13 85.5t-34.5 57.5t-49 32t-56.5 10q-28 0 -54.5 -11.5t-47 -35.5t-33 -60 t-12.5 -84q0 -46 13 -80.5t34 -57t47 -33.5t53 -11q30 0 57.5 11.5t48.5 34.5t34 58.5t13 83.5z"/>
<glyph glyph-name="ntilde" unicode="ñ" d="M380 0q-8 0 -12 6.5t-4 14t4 14t12 7.5l42 6q5 55 5 112.5v103.5q0 42 -7 69t-20.5 42.5t-33 22t-44.5 6.5q-27 0 -60.5 -15t-65.5 -38v-298l86 -9q9 -1 13 -8t3.5 -15t-5 -14.5t-11.5 -6.5h-201q-8 0 -11.5 6.5t-3.5 14.5t4 15t11 8l38 7v339l-66 -3q-8 0 -12 7t-4.5 16 t3 17t11.5 8q29 2 55.5 6.5t59.5 12.5q13 4 15 -7l6 -41l8 -5q48 33 90.5 48.5t76.5 15.5q30 0 56.5 -10.5t47 -32.5t32 -54.5t10.5 -77.5q-1 -60 -3 -122t-6 -118l70 -9q8 -1 11 -7.5t2.5 -14t-4 -13.5t-9.5 -6h-189zM486 609q-21 -41 -45.5 -62t-56.5 -21q-18 0 -35.5 8.5 t-34 19t-31.5 19.5t-28 9q-16 0 -32.5 -14.5t-24.5 -27.5q-5 -7 -7.5 -7.5t-5.5 1.5l-26 19q-8 5 -2 12q7 11 16.5 24.5t21.5 25t27.5 19t34.5 7.5q14 0 30.5 -9t33.5 -19.5t33 -19.5t29 -9q20 0 34.5 15t22.5 29q5 8 13 6l30 -12q8 -3 3 -13z"/>
<glyph glyph-name="ograve" unicode="ò" d="M62 212q0 60 18.5 107t51.5 79.5t79.5 49.5t102.5 17q45 0 85.5 -14.5t71.5 -43t49 -71t18 -99.5q0 -51 -15.5 -95.5t-46 -77.5t-76 -52t-105.5 -19q-49 0 -91.5 13t-74 40t-49.5 68t-18 98zM150 248q0 -108 39 -156.5t111 -48.5q77 0 115.5 44.5t38.5 122.5 q0 45 -11.5 83t-31.5 65t-48 42.5t-61 15.5t-60.5 -11.5t-48 -33t-32 -52.5t-11.5 -71zM159 649q-15 11 -11 26.5t16.5 27t27.5 15.5t23 -6q30 -41 60.5 -79t62.5 -76q4 -5 1.5 -12t-7.5 -12.5t-12 -8t-11 1.5q-45 38 -81.5 68.5t-68.5 54.5z"/>
<glyph glyph-name="oacute" unicode="ó" d="M62 212q0 60 18.5 107t51.5 79.5t79.5 49.5t102.5 17q45 0 85.5 -14.5t71.5 -43t49 -71t18 -99.5q0 -51 -15.5 -95.5t-46 -77.5t-76 -52t-105.5 -19q-49 0 -91.5 13t-74 40t-49.5 68t-18 98zM150 248q0 -108 39 -156.5t111 -48.5q77 0 115.5 44.5t38.5 122.5 q0 45 -11.5 83t-31.5 65t-48 42.5t-61 15.5t-60.5 -11.5t-48 -33t-32 -52.5t-11.5 -71zM441 649q-32 -24 -68.5 -54.5t-81.5 -68.5q-5 -4 -11.5 -1.5t-11.5 8t-7.5 12.5t1.5 12q32 38 62.5 76t60.5 79q8 10 23 6t27.5 -15.5t16.5 -27t-11 -26.5z"/>
<glyph glyph-name="ocircumflex" unicode="ô" d="M62 212q0 60 18.5 107t51.5 79.5t79.5 49.5t102.5 17q45 0 85.5 -14.5t71.5 -43t49 -71t18 -99.5q0 -51 -15.5 -95.5t-46 -77.5t-76 -52t-105.5 -19q-49 0 -91.5 13t-74 40t-49.5 68t-18 98zM150 248q0 -108 39 -156.5t111 -48.5q77 0 115.5 44.5t38.5 122.5 q0 45 -11.5 83t-31.5 65t-48 42.5t-61 15.5t-60.5 -11.5t-48 -33t-32 -52.5t-11.5 -71zM444 551q18 -24 -3 -24h-29q-6 0 -10.5 2t-10.5 9l-91 95l-91 -95q-8 -8 -12.5 -9.5t-11.5 -1.5h-27q-21 0 -3 24l100 131q7 9 11.5 14.5t16.5 5.5h34q13 0 17 -6t11 -14z"/>
<glyph glyph-name="otilde" unicode="õ" d="M62 212q0 60 18.5 107t51.5 79.5t79.5 49.5t102.5 17q45 0 85.5 -14.5t71.5 -43t49 -71t18 -99.5q0 -51 -15.5 -95.5t-46 -77.5t-76 -52t-105.5 -19q-49 0 -91.5 13t-74 40t-49.5 68t-18 98zM150 248q0 -108 39 -156.5t111 -48.5q77 0 115.5 44.5t38.5 122.5 q0 45 -11.5 83t-31.5 65t-48 42.5t-61 15.5t-60.5 -11.5t-48 -33t-32 -52.5t-11.5 -71zM465 609q-21 -41 -45.5 -62t-56.5 -21q-18 0 -35.5 8.5t-34 19t-31.5 19.5t-28 9q-16 0 -32.5 -14.5t-24.5 -27.5q-5 -7 -7.5 -7.5t-5.5 1.5l-26 19q-8 5 -2 12q7 11 16.5 24.5t21.5 25 t27.5 19t34.5 7.5q14 0 30.5 -9t33.5 -19.5t33 -19.5t29 -9q20 0 34.5 15t22.5 29q5 8 13 6l30 -12q8 -3 3 -13z"/>
<glyph glyph-name="odieresis" unicode="ö" d="M62 212q0 60 18.5 107t51.5 79.5t79.5 49.5t102.5 17q45 0 85.5 -14.5t71.5 -43t49 -71t18 -99.5q0 -51 -15.5 -95.5t-46 -77.5t-76 -52t-105.5 -19q-49 0 -91.5 13t-74 40t-49.5 68t-18 98zM150 248q0 -108 39 -156.5t111 -48.5q77 0 115.5 44.5t38.5 122.5 q0 45 -11.5 83t-31.5 65t-48 42.5t-61 15.5t-60.5 -11.5t-48 -33t-32 -52.5t-11.5 -71zM197 540q-17 0 -29 10t-12 28q0 17 6.5 31.5t17 24.5t24 15.5t26.5 5.5q17 0 28 -10t11 -30q0 -31 -19 -53t-53 -22zM377 540q-17 0 -29 10t-12 28q0 17 6.5 31.5t17 24.5t24 15.5 t26.5 5.5q17 0 28 -10t11 -30q0 -31 -19 -53t-53 -22z"/>
<glyph glyph-name="divide" unicode="÷" d="M563 315q12 0 18.5 -11.5t6.5 -26t-5.5 -26t-17.5 -11.5h-528q-13 0 -19 11.5t-6.5 26t5.5 26t17 11.5h529zM222 87q0 29 21 50t56 21q29 0 51.5 -19.5t22.5 -51.5q0 -35 -23 -53t-52 -18q-35 0 -55.5 19t-20.5 52zM224 466q0 32 22 52t54 20q34 0 54 -20.5t20 -52.5 t-22 -51t-54 -19t-53 19.5t-21 51.5z"/>
<glyph glyph-name="oslash" unicode="ø" d="M62 212q0 60 18.5 107t51.5 79.5t79.5 49.5t102.5 17q61 0 113 -26q8 11 16 22.5t16 22.5q6 9 14.5 13t17.5 4q22 0 26 -15.5t-7 -31.5q-10 -12 -19 -24l-18 -24q30 -29 47.5 -71t17.5 -98q0 -51 -15.5 -95.5t-46 -77.5t-76 -52t-105.5 -19q-29 0 -56.5 5t-51.5 14 l-42 -60q-7 -10 -16 -14t-20 -4q-22 0 -27 13.5t7 29.5l47 63q-35 27 -54.5 69.5t-19.5 102.5zM150 248q0 -49 8 -84.5t24 -61.5q52 70 103 139.5t102 141.5q-38 33 -85 33q-33 0 -60.5 -11.5t-48 -33t-32 -52.5t-11.5 -71zM423 339q-52 -71 -101.5 -139.5t-98.5 -137.5 q31 -19 77 -19q77 0 115.5 44.5t38.5 122.5q0 75 -31 129z"/>
<glyph glyph-name="ugrave" unicode="ù" d="M425 388h-60q-9 0 -13.5 6t-4.5 14t3.5 15t11.5 9q23 6 52.5 14.5t54.5 16.5q6 2 9 2q12 0 16.5 -10t4.5 -27v-354l57 13q9 2 15 -4t9 -14.5t1.5 -16.5t-8.5 -11l-103 -44q-12 -5 -17.5 -4t-10.5 9l-12 21l-12 5q-38 -21 -75.5 -28t-68.5 -7q-30 0 -60.5 8.5t-54.5 28.5 t-39.5 53.5t-15.5 84.5q0 106 9 214h-57q-9 0 -14 6t-6.5 13.5t1.5 15t11 9.5q21 6 51 14.5t59 18.5q2 1 9.5 3.5t9.5 2.5q9 0 12.5 -14.5t1.5 -47.5q-2 -26 -3 -57.5t-2 -61.5t-1.5 -54.5t-0.5 -36.5q0 -69 25 -106.5t85 -37.5q10 0 26.5 2.5t35 7.5t36.5 13.5t33 20.5v295 zM167 649q-15 11 -11 26.5t16.5 27t27.5 15.5t23 -6q30 -41 60.5 -79t62.5 -76q4 -5 1.5 -12t-7.5 -12.5t-12 -8t-11 1.5q-45 38 -81.5 68.5t-68.5 54.5z"/>
<glyph glyph-name="uacute" unicode="ú" d="M425 388h-60q-9 0 -13.5 6t-4.5 14t3.5 15t11.5 9q23 6 52.5 14.5t54.5 16.5q6 2 9 2q12 0 16.5 -10t4.5 -27v-354l57 13q9 2 15 -4t9 -14.5t1.5 -16.5t-8.5 -11l-103 -44q-12 -5 -17.5 -4t-10.5 9l-12 21l-12 5q-38 -21 -75.5 -28t-68.5 -7q-30 0 -60.5 8.5t-54.5 28.5 t-39.5 53.5t-15.5 84.5q0 106 9 214h-57q-9 0 -14 6t-6.5 13.5t1.5 15t11 9.5q21 6 51 14.5t59 18.5q2 1 9.5 3.5t9.5 2.5q9 0 12.5 -14.5t1.5 -47.5q-2 -26 -3 -57.5t-2 -61.5t-1.5 -54.5t-0.5 -36.5q0 -69 25 -106.5t85 -37.5q10 0 26.5 2.5t35 7.5t36.5 13.5t33 20.5v295 zM449 649q-32 -24 -68.5 -54.5t-81.5 -68.5q-5 -4 -11.5 -1.5t-11.5 8t-7.5 12.5t1.5 12q32 38 62.5 76t60.5 79q8 10 23 6t27.5 -15.5t16.5 -27t-11 -26.5z"/>
<glyph glyph-name="ucircumflex" unicode="û" d="M425 388h-60q-9 0 -13.5 6t-4.5 14t3.5 15t11.5 9q23 6 52.5 14.5t54.5 16.5q6 2 9 2q12 0 16.5 -10t4.5 -27v-354l57 13q9 2 15 -4t9 -14.5t1.5 -16.5t-8.5 -11l-103 -44q-12 -5 -17.5 -4t-10.5 9l-12 21l-12 5q-38 -21 -75.5 -28t-68.5 -7q-30 0 -60.5 8.5t-54.5 28.5 t-39.5 53.5t-15.5 84.5q0 106 9 214h-57q-9 0 -14 6t-6.5 13.5t1.5 15t11 9.5q21 6 51 14.5t59 18.5q2 1 9.5 3.5t9.5 2.5q9 0 12.5 -14.5t1.5 -47.5q-2 -26 -3 -57.5t-2 -61.5t-1.5 -54.5t-0.5 -36.5q0 -69 25 -106.5t85 -37.5q10 0 26.5 2.5t35 7.5t36.5 13.5t33 20.5v295 zM452 551q18 -24 -3 -24h-29q-6 0 -10.5 2t-10.5 9l-91 95l-91 -95q-8 -8 -12.5 -9.5t-11.5 -1.5h-27q-21 0 -3 24l100 131q7 9 11.5 14.5t16.5 5.5h34q13 0 17 -6t11 -14z"/>
<glyph glyph-name="udieresis" unicode="ü" d="M425 388h-60q-9 0 -13.5 6t-4.5 14t3.5 15t11.5 9q23 6 52.5 14.5t54.5 16.5q6 2 9 2q12 0 16.5 -10t4.5 -27v-354l57 13q9 2 15 -4t9 -14.5t1.5 -16.5t-8.5 -11l-103 -44q-12 -5 -17.5 -4t-10.5 9l-12 21l-12 5q-38 -21 -75.5 -28t-68.5 -7q-30 0 -60.5 8.5t-54.5 28.5 t-39.5 53.5t-15.5 84.5q0 106 9 214h-57q-9 0 -14 6t-6.5 13.5t1.5 15t11 9.5q21 6 51 14.5t59 18.5q2 1 9.5 3.5t9.5 2.5q9 0 12.5 -14.5t1.5 -47.5q-2 -26 -3 -57.5t-2 -61.5t-1.5 -54.5t-0.5 -36.5q0 -69 25 -106.5t85 -37.5q10 0 26.5 2.5t35 7.5t36.5 13.5t33 20.5v295 zM205 540q-17 0 -29 10t-12 28q0 17 6.5 31.5t17 24.5t24 15.5t26.5 5.5q17 0 28 -10t11 -30q0 -31 -19 -53t-53 -22zM385 540q-17 0 -29 10t-12 28q0 17 6.5 31.5t17 24.5t24 15.5t26.5 5.5q17 0 28 -10t11 -30q0 -31 -19 -53t-53 -22z"/>
<glyph glyph-name="yacute" unicode="ý" d="M236 454q8 0 11.5 -6.5t3.5 -14.5t-4 -14.5t-11 -6.5l-48 -5q23 -69 57 -139.5t76 -138.5h13q12 22 26.5 57t28 73.5t24 76.5t15.5 68l-71 5q-9 0 -13 7t-3.5 15.5t4.5 15.5t12 7h181q7 0 11 -6.5t4 -15t-4 -15.5t-11 -8l-41 -5q-17 -56 -41 -121t-53 -131.5t-61.5 -131 t-66.5 -119.5q-19 -31 -34.5 -52t-31.5 -33.5t-33.5 -17.5t-39.5 -5q-34 0 -59.5 11.5t-25.5 31.5q0 4 3.5 11.5t9.5 15.5t14 14t17 6q10 0 17 -4t14.5 -9.5t17.5 -9.5t27 -4q13 0 30.5 20.5t35.5 49.5t33 61t24 55q-62 88 -110 182t-81 183l-63 5q-8 0 -11 6.5t-2.5 14.5 t4 14.5t9.5 6.5h196zM439 649q-32 -24 -68.5 -54.5t-81.5 -68.5q-5 -4 -11.5 -1.5t-11.5 8t-7.5 12.5t1.5 12q32 38 62.5 76t60.5 79q8 10 23 6t27.5 -15.5t16.5 -27t-11 -26.5z"/>
<glyph glyph-name="thorn" unicode="þ" d="M198 427l14 -4q26 15 58 28.5t72 13.5q42 0 77 -18t60 -49t39 -73t14 -89q0 -50 -18 -93.5t-48 -75t-70 -49.5t-85 -18q-30 0 -61.5 5.5t-54.5 15.5l7 -168l80 -12q11 -2 14.5 -9t2.5 -15t-5.5 -14.5t-10.5 -6.5h-196q-8 0 -11.5 6.5t-3.5 15t3.5 15.5t9.5 9l42 9v776 l-75 -5q-4 0 -5.5 6.5t-1.5 14.5t2 14.5t5 7.5q13 3 29 6.5t32 7.5t31 8.5t26 8.5q28 11 33.5 1t3.5 -49zM197 75q19 -14 50.5 -19.5t56.5 -5.5q27 0 53 10t47 30t33.5 51t12.5 73q0 98 -41 144.5t-108 46.5q-23 0 -53.5 -8t-50.5 -28v-294z"/>
</font>
</defs>
</svg>
